<?xml version="1.0" encoding="UTF-8" standalone="no"?>
<!-- Created with Inkscape (http://www.inkscape.org/) -->

<svg
   xmlns:dc="http://purl.org/dc/elements/1.1/"
   xmlns:cc="http://creativecommons.org/ns#"
   xmlns:rdf="http://www.w3.org/1999/02/22-rdf-syntax-ns#"
   xmlns:svg="http://www.w3.org/2000/svg"
   xmlns="http://www.w3.org/2000/svg"
   xmlns:sodipodi="http://sodipodi.sourceforge.net/DTD/sodipodi-0.dtd"
   xmlns:inkscape="http://www.inkscape.org/namespaces/inkscape"
   width="1280"
   height="1440"
   viewBox="0 0 1280 1440"
   id="svg4148"
   version="1.1"
   inkscape:version="0.91 r13725"
   sodipodi:docname="tcellismockup.svg">
  <defs
     id="defs4150" />
  <sodipodi:namedview
     id="base"
     pagecolor="#ffffff"
     bordercolor="#666666"
     borderopacity="1.0"
     inkscape:pageopacity="0.0"
     inkscape:pageshadow="2"
     inkscape:zoom="0.81666667"
     inkscape:cx="739.99774"
     inkscape:cy="1384.6075"
     inkscape:document-units="px"
     inkscape:current-layer="layer1"
     showgrid="true"
     units="px"
     inkscape:showpageshadow="false"
     showguides="true"
     inkscape:snap-to-guides="true"
     inkscape:snap-grids="false"
     inkscape:window-width="1440"
     inkscape:window-height="790"
     inkscape:window-x="0"
     inkscape:window-y="1"
     inkscape:window-maximized="1"
     inkscape:guide-bbox="true"
     borderlayer="false">
    <sodipodi:guide
       position="640.40816,563.2653"
       orientation="1,0"
       id="guide3380" />
    <inkscape:grid
       type="xygrid"
       id="grid4182" />
  </sodipodi:namedview>
  <metadata
     id="metadata4153">
    <rdf:RDF>
      <cc:Work
         rdf:about="">
        <dc:format>image/svg+xml</dc:format>
        <dc:type
           rdf:resource="http://purl.org/dc/dcmitype/StillImage" />
        <dc:title></dc:title>
      </cc:Work>
    </rdf:RDF>
  </metadata>
  <g
     inkscape:label="Layer 1"
     inkscape:groupmode="layer"
     id="layer1"
     transform="translate(0,387.6377)">
    <rect
       style="fill:none"
       id="rect4156"
       width="1021.224"
       height="713.87799"
       x="720"
       y="338.48431" />
    <rect
       style="fill:none"
       id="rect4158"
       width="1280.653"
       height="562.04102"
       x="0"
       y="490.32135" />
    <rect
       style="fill:#fbf8f3;fill-opacity:1;stroke:#000000;stroke-width:1.00118101;stroke-opacity:1"
       id="rect4160"
       width="1278.9988"
       height="23.264126"
       x="0.50059062"
       y="-387.29565" />
    <rect
       style="fill:none;stroke:#000000;stroke-width:1.00024569;stroke-opacity:1"
       id="rect4178"
       width="1278.9998"
       height="75.918129"
       x="0.50012285"
       y="-361.29193" />
    <rect
       style="fill:#fbf8f3;fill-opacity:1;stroke:#000000;stroke-width:0.99883831;stroke-opacity:1"
       id="rect4180"
       width="1275.3276"
       height="20.817488"
       x="2.2892783"
       y="-283.79114" />
    <rect
       style="fill:#fbf8f3;fill-opacity:1;stroke:#000000;stroke-width:0.86524141;stroke-opacity:1"
       id="rect4182"
       width="1279.1348"
       height="448.97049"
       x="0.43262091"
       y="392.25449" />
    <text
       xml:space="preserve"
       style="font-style:normal;font-weight:normal;font-size:40px;line-height:125%;font-family:sans-serif;text-align:center;letter-spacing:0px;word-spacing:0px;text-anchor:middle;fill:#000000;fill-opacity:1;stroke:none;stroke-width:1px;stroke-linecap:butt;stroke-linejoin:miter;stroke-opacity:1"
       x="642.26282"
       y="-312.52258"
       id="text4184"
       sodipodi:linespacing="125%"><tspan
         sodipodi:role="line"
         id="tspan4186"
         x="642.26282"
         y="-312.52258">Logo</tspan></text>
    <text
       xml:space="preserve"
       style="font-style:normal;font-weight:normal;font-size:9.78033066px;line-height:125%;font-family:sans-serif;text-align:center;letter-spacing:0px;word-spacing:0px;text-anchor:middle;fill:#000000;fill-opacity:1;stroke:none;stroke-width:1px;stroke-linecap:butt;stroke-linejoin:miter;stroke-opacity:1"
       x="920.72644"
       y="-366.81967"
       id="text4188"
       sodipodi:linespacing="125%"
       transform="scale(0.97803307,1.0224603)"><tspan
         sodipodi:role="line"
         id="tspan4190"
         x="922.28326"
         y="-366.81967">My account  </tspan></text>
    <text
       xml:space="preserve"
       style="font-style:normal;font-weight:normal;font-size:10px;line-height:125%;font-family:sans-serif;text-align:center;letter-spacing:0px;word-spacing:0px;text-anchor:middle;fill:#000000;fill-opacity:1;stroke:none;stroke-width:1px;stroke-linecap:butt;stroke-linejoin:miter;stroke-opacity:1"
       x="1002.3785"
       y="-374.19275"
       id="text4192"
       sodipodi:linespacing="125%"><tspan
         sodipodi:role="line"
         id="tspan4194"
         x="1002.3785"
         y="-374.19275">Wishlist</tspan></text>
    <text
       xml:space="preserve"
       style="font-style:normal;font-weight:normal;font-size:10px;line-height:125%;font-family:sans-serif;text-align:center;letter-spacing:0px;word-spacing:0px;text-anchor:middle;fill:#000000;fill-opacity:1;stroke:none;stroke-width:1px;stroke-linecap:butt;stroke-linejoin:miter;stroke-opacity:1"
       x="1130.2146"
       y="-374.80496"
       id="text4196"
       sodipodi:linespacing="125%"><tspan
         sodipodi:role="line"
         id="tspan4198"
         x="1130.2146"
         y="-374.80496">Shopping Cart</tspan></text>
    <path
       sodipodi:type="star"
       style="fill:none;stroke:#000000;stroke-opacity:1"
       id="path4200"
       sodipodi:sides="5"
       sodipodi:cx="1042.026"
       sodipodi:cy="-377.0004"
       sodipodi:r1="10.53346"
       sodipodi:r2="5.2667298"
       sodipodi:arg1="0.95054684"
       sodipodi:arg2="1.5788654"
       inkscape:flatsided="false"
       inkscape:rounded="0"
       inkscape:randomized="0"
       d="m 1048.1485,-368.42897 -6.165,-3.30487 -6.2175,3.20496 1.2381,-6.88448 -4.9694,-4.92278 6.9301,-0.94997 3.1462,-6.2474 3.045,6.29736 6.9139,1.06168 -5.0482,4.84195 z"
       inkscape:transform-center-x="-0.019971889"
       inkscape:transform-center-y="-0.86662931"
       transform="matrix(0.76020521,0,0,0.88355395,247.28185,-45.325441)" />
    <ellipse
       style="fill:none;stroke:#000000;stroke-opacity:1"
       id="path4202"
       cx="1199.2933"
       cy="-378.37338"
       rx="17.142857"
       ry="4.8979592" />
    <text
       xml:space="preserve"
       style="font-style:normal;font-weight:normal;font-size:10px;line-height:125%;font-family:sans-serif;text-align:center;letter-spacing:0px;word-spacing:0px;text-anchor:middle;fill:#000000;fill-opacity:1;stroke:none;stroke-width:1px;stroke-linecap:butt;stroke-linejoin:miter;stroke-opacity:1"
       x="229.74785"
       y="-267.25998"
       id="text4204"
       sodipodi:linespacing="125%"><tspan
         sodipodi:role="line"
         id="tspan4206"
         x="229.74785"
         y="-267.25998">New</tspan></text>
    <text
       xml:space="preserve"
       style="font-style:normal;font-weight:normal;font-size:10px;line-height:125%;font-family:sans-serif;text-align:center;letter-spacing:0px;word-spacing:0px;text-anchor:middle;fill:#000000;fill-opacity:1;stroke:none;stroke-width:1px;stroke-linecap:butt;stroke-linejoin:miter;stroke-opacity:1"
       x="380.38712"
       y="-269.45535"
       id="text4208"
       sodipodi:linespacing="125%"><tspan
         sodipodi:role="line"
         id="tspan4210"
         x="380.38712"
         y="-269.45535">Clothing</tspan></text>
    <text
       xml:space="preserve"
       style="font-style:normal;font-weight:normal;font-size:10px;line-height:125%;font-family:sans-serif;text-align:center;letter-spacing:0px;word-spacing:0px;text-anchor:middle;fill:#000000;fill-opacity:1;stroke:none;stroke-width:1px;stroke-linecap:butt;stroke-linejoin:miter;stroke-opacity:1"
       x="543.90009"
       y="-268.53699"
       id="text4212"
       sodipodi:linespacing="125%"><tspan
         sodipodi:role="line"
         id="tspan4214"
         x="543.90009"
         y="-268.53699">Shoes &amp; Accessories</tspan></text>
    <text
       xml:space="preserve"
       style="font-style:normal;font-weight:normal;font-size:10px;line-height:125%;font-family:sans-serif;text-align:center;letter-spacing:0px;word-spacing:0px;text-anchor:middle;fill:#000000;fill-opacity:1;stroke:none;stroke-width:1px;stroke-linecap:butt;stroke-linejoin:miter;stroke-opacity:1"
       x="885.41113"
       y="-267.97726"
       id="text4216"
       sodipodi:linespacing="125%"><tspan
         sodipodi:role="line"
         id="tspan4218"
         x="885.41113"
         y="-267.97726">Sale</tspan></text>
    <text
       xml:space="preserve"
       style="font-style:normal;font-weight:normal;font-size:10px;line-height:125%;font-family:sans-serif;text-align:center;letter-spacing:0px;word-spacing:0px;text-anchor:middle;fill:#000000;fill-opacity:1;stroke:none;stroke-width:1px;stroke-linecap:butt;stroke-linejoin:miter;stroke-opacity:1"
       x="1087.3708"
       y="-268.51151"
       id="text4224"
       sodipodi:linespacing="125%"><tspan
         sodipodi:role="line"
         id="tspan4226"
         x="1087.3708"
         y="-268.51151">Search</tspan></text>
    <text
       xml:space="preserve"
       style="font-style:normal;font-weight:normal;font-size:10px;line-height:125%;font-family:sans-serif;text-align:center;letter-spacing:0px;word-spacing:0px;text-anchor:middle;fill:#000000;fill-opacity:1;stroke:none;stroke-width:1px;stroke-linecap:butt;stroke-linejoin:miter;stroke-opacity:1"
       x="738.20978"
       y="-270.37372"
       id="text4228"
       sodipodi:linespacing="125%"><tspan
         sodipodi:role="line"
         id="tspan4230"
         x="738.20978"
         y="-270.37372">Looks We Love</tspan></text>
    <path
       sodipodi:type="spiral"
       style="fill:none;fill-rule:evenodd;stroke:#000000;stroke-width:1px;stroke-linecap:butt;stroke-linejoin:miter;stroke-opacity:1"
       id="path4232"
       sodipodi:cx="396.73468"
       sodipodi:cy="388.68881"
       sodipodi:expansion="1"
       sodipodi:revolution="3"
       sodipodi:radius="145.11624"
       sodipodi:argument="-18.299007"
       sodipodi:t0="0"
       d="m 396.73468,388.68881 c 6.20079,3.80642 -2.07173,10.2365 -6.32652,10.30613 -11.53023,0.18869 -16.64569,-13.41398 -14.28574,-22.95917 4.22141,-17.0741 24.19805,-23.73571 39.59182,-18.26534 22.59099,8.02798 30.99048,35.11199 22.24495,56.22447 -11.65641,28.13961 -46.0699,38.3127 -72.85712,26.22455 -33.70897,-15.2117 -45.66928,-57.04823 -30.20416,-89.48976 18.73034,-39.29105 68.03797,-53.04566 106.12242,-34.18377 44.8812,22.22808 60.43443,79.03479 38.16337,122.75506 -25.71281,50.47678 -90.03635,67.83148 -139.38771,42.14298 -56.07615,-29.18891 -75.23432,-101.04124 -46.12259,-156.02036 32.65898,-61.67826 112.04856,-82.64138 172.65301,-50.10219 67.28243,36.12467 90.05159,123.05771 54.0818,189.28566"
       transform="matrix(0.21262974,0,0,0.2260563,382.72873,-410.92274)" />
    <path
       sodipodi:type="spiral"
       style="fill:none;fill-rule:evenodd;stroke:#553c3c;stroke-width:1px;stroke-linecap:butt;stroke-linejoin:miter;stroke-opacity:0.30128205"
       id="path4236"
       sodipodi:cx="722.44897"
       sodipodi:cy="391.13782"
       sodipodi:expansion="1"
       sodipodi:revolution="3"
       sodipodi:radius="36.4067"
       sodipodi:argument="-18.11174"
       sodipodi:t0="0"
       d="m 722.44897,391.13782 c 1.35067,1.22788 -0.98878,2.42646 -2.04081,2.24489 -2.85094,-0.49203 -3.47652,-4.08393 -2.44898,-6.32653 1.83804,-4.01148 7.07329,-4.72046 10.61225,-2.65305 5.19356,3.03401 5.99895,10.10236 2.85713,14.89796 -4.18756,6.39179 -13.14541,7.29202 -19.18368,3.06121 -7.59854,-5.32404 -8.5926,-16.19511 -3.26528,-23.46939 6.45208,-8.81014 19.24853,-9.89752 27.7551,-3.46937 10.0247,7.57536 11.20517,22.30429 3.67345,32.04082 -8.69568,11.24121 -25.3616,12.51465 -36.32654,3.87753 -12.45906,-9.81405 -13.82538,-28.42 -4.0816,-40.61225 10.93105,-13.67787 31.47919,-15.13706 44.89796,-4.28568 14.89738,12.04707 16.44941,34.53898 4.48976,49.18367"
       transform="matrix(0.84835765,0,0,0.89615348,232.77232,-674.48068)" />
    <path
       style="fill:none;stroke:#000000;stroke-width:1.22448981;stroke-opacity:1"
       d="m 4.7695026,41.075258 0,-299.999998 638.5714274,0 638.57147,0 0,299.999998 0,300.000002 -638.57147,0 -638.5714274,0 0,-300.000002 z"
       id="path4238"
       inkscape:connector-curvature="0" />
    <text
       xml:space="preserve"
       style="font-style:normal;font-weight:normal;font-size:45px;line-height:125%;font-family:sans-serif;text-align:center;letter-spacing:0px;word-spacing:0px;text-anchor:middle;fill:#000000;fill-opacity:1;stroke:none;stroke-width:1px;stroke-linecap:butt;stroke-linejoin:miter;stroke-opacity:1"
       x="662.92017"
       y="-82.420433"
       id="text3374"
       sodipodi:linespacing="125%"><tspan
         sodipodi:role="line"
         id="tspan3376"
         x="662.92017"
         y="-82.420433">4 large scrolling slides</tspan></text>
    <text
       xml:space="preserve"
       style="font-style:normal;font-weight:normal;font-size:18.35692978px;line-height:125%;font-family:sans-serif;text-align:center;letter-spacing:0px;word-spacing:0px;text-anchor:middle;fill:#000000;fill-opacity:1;stroke:none;stroke-width:1px;stroke-linecap:butt;stroke-linejoin:miter;stroke-opacity:1"
       x="568.88678"
       y="419.81293"
       id="text4185"
       sodipodi:linespacing="125%"
       transform="scale(1.1296572,0.8852243)"><tspan
         sodipodi:role="line"
         id="tspan4187"
         x="568.88678"
         y="419.81293"> Shop Instagram</tspan></text>
    <rect
       style="fill:none;fill-opacity:1;stroke:#000000;stroke-opacity:1"
       id="rect4189"
       width="260"
       height="320"
       x="44.585918"
       y="452.3623" />
    <rect
       style="fill:none;fill-opacity:1;stroke:#000000;stroke-opacity:1"
       id="rect4191"
       width="260"
       height="320"
       x="362.07394"
       y="452.3623" />
    <rect
       style="fill:none;fill-opacity:1;stroke:#000000;stroke-opacity:1"
       id="rect4193"
       width="260"
       height="320"
       x="664.75702"
       y="452.3623" />
    <rect
       style="fill:none;fill-opacity:1;stroke:#000000;stroke-opacity:1"
       id="rect4195"
       width="260"
       height="320"
       x="980"
       y="452.3623" />
    <path
       style="fill:none;fill-rule:evenodd;stroke:#000000;stroke-width:1px;stroke-linecap:butt;stroke-linejoin:miter;stroke-opacity:1"
       d="m 484.48979,366.79365 c -140,0 -150,0 -150,0 l 30,-10 -20,10 10,10 0,0 0,0"
       id="path4197"
       inkscape:connector-curvature="0" />
    <path
       style="fill:#fbf8f3;fill-opacity:1;fill-rule:evenodd;stroke:#000000;stroke-width:0.99592537px;stroke-linecap:butt;stroke-linejoin:miter;stroke-opacity:1"
       d="m 980.11188,368.07968 c -138.85743,0 -148.77581,0 -148.77581,0 l 29.75515,-10.00029 -19.83677,10.00029 9.91839,10.00029 0,0 0,0"
       id="path4197-5"
       inkscape:connector-curvature="0" />
    <text
       xml:space="preserve"
       style="font-style:normal;font-weight:normal;font-size:16.25px;line-height:125%;font-family:sans-serif;text-align:center;letter-spacing:0px;word-spacing:0px;text-anchor:middle;fill:#000000;fill-opacity:1;stroke:none;stroke-width:1px;stroke-linecap:butt;stroke-linejoin:miter;stroke-opacity:1"
       x="120"
       y="582.3623"
       id="text4214"
       sodipodi:linespacing="125%"><tspan
         sodipodi:role="line"
         id="tspan4216"
         x="120"
         y="582.3623">Photo 1</tspan></text>
    <text
       xml:space="preserve"
       style="font-style:normal;font-weight:normal;font-size:16.25px;line-height:125%;font-family:sans-serif;text-align:center;letter-spacing:0px;word-spacing:0px;text-anchor:middle;fill:#000000;fill-opacity:1;stroke:none;stroke-width:1px;stroke-linecap:butt;stroke-linejoin:miter;stroke-opacity:1"
       x="460"
       y="592.3623"
       id="text4218"
       sodipodi:linespacing="125%"><tspan
         sodipodi:role="line"
         id="tspan4220"
         x="460"
         y="592.3623">Photo 2</tspan></text>
    <text
       xml:space="preserve"
       style="font-style:normal;font-weight:normal;font-size:16.25px;line-height:125%;font-family:sans-serif;text-align:center;letter-spacing:0px;word-spacing:0px;text-anchor:middle;fill:#000000;fill-opacity:1;stroke:none;stroke-width:1px;stroke-linecap:butt;stroke-linejoin:miter;stroke-opacity:1"
       x="760"
       y="592.3623"
       id="text4222"
       sodipodi:linespacing="125%"><tspan
         sodipodi:role="line"
         id="tspan4224"
         x="760"
         y="592.3623">Photo 3</tspan></text>
    <text
       xml:space="preserve"
       style="font-style:normal;font-weight:normal;font-size:16.25px;line-height:125%;font-family:sans-serif;text-align:center;letter-spacing:0px;word-spacing:0px;text-anchor:middle;fill:#000000;fill-opacity:1;stroke:none;stroke-width:1px;stroke-linecap:butt;stroke-linejoin:miter;stroke-opacity:1"
       x="1070"
       y="592.3623"
       id="text4226"
       sodipodi:linespacing="125%"><tspan
         sodipodi:role="line"
         id="tspan4228"
         x="1070"
         y="592.3623">Photo 4</tspan></text>
    <text
       xml:space="preserve"
       style="font-style:normal;font-weight:normal;font-size:16.25px;line-height:125%;font-family:sans-serif;text-align:center;letter-spacing:0px;word-spacing:0px;text-anchor:middle;fill:#000000;fill-opacity:1;stroke:none;stroke-width:1px;stroke-linecap:butt;stroke-linejoin:miter;stroke-opacity:1"
       x="256.30753"
       y="747.08704"
       id="text4230"
       sodipodi:linespacing="125%"
       transform="scale(0.84560404,1.1825866)"><tspan
         sodipodi:role="line"
         id="tspan4232"
         x="256.30753"
         y="747.08704">Customer Care</tspan></text>
    <text
       xml:space="preserve"
       style="font-style:normal;font-weight:normal;font-size:12.5px;line-height:125%;font-family:sans-serif;text-align:center;letter-spacing:0px;word-spacing:0px;text-anchor:middle;fill:#000000;fill-opacity:1;stroke:none;stroke-width:1px;stroke-linecap:butt;stroke-linejoin:miter;stroke-opacity:1"
       x="220.61224"
       y="906.23987"
       id="text4234"
       sodipodi:linespacing="125%"
       inkscape:transform-center-x="97.959183"
       inkscape:transform-center-y="1.2244898"><tspan
         sodipodi:role="line"
         id="tspan4236"
         x="220.61224"
         y="906.23987">My Account</tspan><tspan
         sodipodi:role="line"
         x="220.61224"
         y="921.86487"
         id="tspan4238">Order Status</tspan><tspan
         sodipodi:role="line"
         x="220.61224"
         y="937.48987"
         id="tspan4240">Shipping &amp; Returns</tspan><tspan
         sodipodi:role="line"
         x="220.61224"
         y="953.11487"
         id="tspan4246">Size Chart</tspan><tspan
         sodipodi:role="line"
         x="220.61224"
         y="968.73987"
         id="tspan4248">Gift Certificates</tspan><tspan
         sodipodi:role="line"
         x="220.61224"
         y="984.36487"
         id="tspan4284">Contact Us</tspan></text>
    <text
       xml:space="preserve"
       style="font-style:normal;font-weight:normal;font-size:16.25px;line-height:125%;font-family:sans-serif;text-align:center;letter-spacing:0px;word-spacing:0px;text-anchor:middle;fill:#000000;fill-opacity:1;stroke:none;stroke-width:1px;stroke-linecap:butt;stroke-linejoin:miter;stroke-opacity:1"
       x="418.57147"
       y="881.13782"
       id="text4258"
       sodipodi:linespacing="125%"><tspan
         sodipodi:role="line"
         id="tspan4260"
         x="418.57147"
         y="881.13782">Discover</tspan></text>
    <text
       xml:space="preserve"
       style="font-style:normal;font-weight:normal;font-size:12.5px;line-height:125%;font-family:sans-serif;text-align:center;letter-spacing:0px;word-spacing:0px;text-anchor:middle;fill:#000000;fill-opacity:1;stroke:none;stroke-width:1px;stroke-linecap:butt;stroke-linejoin:miter;stroke-opacity:1"
       x="419.59183"
       y="907.26025"
       id="text4262"
       sodipodi:linespacing="125%"><tspan
         sodipodi:role="line"
         id="tspan4264"
         x="419.59183"
         y="907.26025">About Us</tspan><tspan
         sodipodi:role="line"
         x="419.59183"
         y="922.88525"
         id="tspan4266">Lookbooks</tspan><tspan
         sodipodi:role="line"
         x="419.59183"
         y="938.51025"
         id="tspan4268">Blog</tspan><tspan
         sodipodi:role="line"
         x="419.59183"
         y="954.13525"
         id="tspan4270">Job Postings</tspan><tspan
         sodipodi:role="line"
         x="419.59183"
         y="969.76025"
         id="tspan4286">Share Your Style</tspan><tspan
         sodipodi:role="line"
         x="419.59183"
         y="985.38525"
         id="tspan4288" /></text>
    <text
       xml:space="preserve"
       style="font-style:normal;font-weight:normal;font-size:12.5px;line-height:125%;font-family:sans-serif;text-align:center;letter-spacing:0px;word-spacing:0px;text-anchor:middle;fill:#000000;fill-opacity:1;stroke:none;stroke-width:1px;stroke-linecap:butt;stroke-linejoin:miter;stroke-opacity:1"
       x="170"
       y="1002.3623"
       id="text4272"
       sodipodi:linespacing="125%"><tspan
         sodipodi:role="line"
         x="170"
         y="1002.3623"
         id="tspan4276" /><tspan
         sodipodi:role="line"
         x="170"
         y="1017.9873"
         id="tspan4280" /><tspan
         sodipodi:role="line"
         x="170"
         y="1033.6123"
         id="tspan4282" /></text>
    <text
       xml:space="preserve"
       style="font-style:normal;font-weight:normal;font-size:12.5px;line-height:125%;font-family:sans-serif;text-align:center;letter-spacing:0px;word-spacing:0px;text-anchor:middle;fill:#000000;fill-opacity:1;stroke:none;stroke-width:1px;stroke-linecap:butt;stroke-linejoin:miter;stroke-opacity:1"
       x="631.83673"
       y="1046.2399"
       id="text4294"
       sodipodi:linespacing="125%"><tspan
         sodipodi:role="line"
         id="tspan4296"
         x="631.83673"
         y="1046.2399">Privacy Policy and Terms of Use</tspan></text>
    <rect
       style="fill:none;fill-opacity:1;stroke:#0a0404;stroke-width:0.93142259;stroke-opacity:0.30128204"
       id="rect4298"
       width="379.6604"
       height="40.476742"
       x="575.47589"
       y="884.57288" />
    <text
       xml:space="preserve"
       style="font-style:normal;font-weight:normal;font-size:16.25px;line-height:125%;font-family:sans-serif;text-align:center;letter-spacing:0px;word-spacing:0px;text-anchor:middle;fill:#000000;fill-opacity:1;stroke:none;stroke-width:1px;stroke-linecap:butt;stroke-linejoin:miter;stroke-opacity:1"
       x="651.42859"
       y="877.26025"
       id="text4300"
       sodipodi:linespacing="125%"><tspan
         sodipodi:role="line"
         id="tspan4302"
         x="651.42859"
         y="877.26025">JOIN THE PARTY:</tspan></text>
    <text
       xml:space="preserve"
       style="font-style:normal;font-weight:normal;font-size:16.25px;line-height:125%;font-family:sans-serif;text-align:center;letter-spacing:0px;word-spacing:0px;text-anchor:middle;fill:#000000;fill-opacity:1;stroke:none;stroke-width:1px;stroke-linecap:butt;stroke-linejoin:miter;stroke-opacity:1"
       x="664.89795"
       y="909.09692"
       id="text4304"
       sodipodi:linespacing="125%"><tspan
         sodipodi:role="line"
         id="tspan4306"
         x="664.89795"
         y="909.09692">Email Address</tspan></text>
    <rect
       style="fill:none;fill-opacity:1;stroke:#040a0a;stroke-opacity:0.96815287"
       id="rect4308"
       width="410.20407"
       height="55.102039"
       x="573.06122"
       y="953.17871" />
    <path
       sodipodi:type="star"
       style="fill:none;fill-opacity:1;stroke:#040a0a;stroke-opacity:0.96815287"
       id="path4310"
       sodipodi:sides="5"
       sodipodi:cx="614.69388"
       sodipodi:cy="978.89293"
       sodipodi:r1="12.784049"
       sodipodi:r2="6.3920245"
       sodipodi:arg1="0.29145679"
       sodipodi:arg2="0.91977533"
       inkscape:flatsided="false"
       inkscape:rounded="0"
       inkscape:randomized="0"
       d="m 626.93881,982.56641 -8.37134,1.41117 -3.58336,7.69612 -3.92898,-7.52554 -8.42676,-1.02974 5.94309,-6.06221 -1.62467,-8.33254 7.60202,3.7789 7.42266,-4.12005 -1.24479,8.39769 z"
       inkscape:transform-center-x="-0.089678142"
       inkscape:transform-center-y="1.1351645" />
    <path
       sodipodi:type="star"
       style="fill:none;fill-opacity:1;stroke:#040a0a;stroke-opacity:0.96815287"
       id="path4312"
       sodipodi:sides="5"
       sodipodi:cx="884.08167"
       sodipodi:cy="982.56641"
       sodipodi:r1="18.079374"
       sodipodi:r2="9.0396872"
       sodipodi:arg1="0.49394137"
       sodipodi:arg2="1.1222599"
       inkscape:flatsided="false"
       inkscape:rounded="0"
       inkscape:randomized="0"
       d="m 900.00003,991.13783 -11.99833,-0.42592 -7.1529,9.64249 -3.30261,-11.54272 -11.38091,-3.82312 9.9572,-6.70787 0.11912,-12.0053 9.4565,7.39702 11.45452,-3.59655 -4.11276,11.27947 z"
       inkscape:transform-center-x="0.99901083"
       inkscape:transform-center-y="0.74848557" />
    <text
       xml:space="preserve"
       style="font-style:normal;font-weight:normal;font-size:16.25px;line-height:125%;font-family:sans-serif;text-align:center;letter-spacing:0px;word-spacing:0px;text-anchor:middle;fill:#000000;fill-opacity:1;stroke:none;stroke-width:1px;stroke-linecap:butt;stroke-linejoin:miter;stroke-opacity:1"
       x="735.91833"
       y="985.01538"
       id="text4314"
       sodipodi:linespacing="125%"><tspan
         sodipodi:role="line"
         id="tspan4316"
         x="735.91833"
         y="985.01538">Social Media Icons</tspan></text>
    <text
       xml:space="preserve"
       style="font-style:normal;font-weight:normal;font-size:16.25px;line-height:125%;font-family:sans-serif;text-align:center;letter-spacing:0px;word-spacing:0px;text-anchor:middle;fill:#000000;fill-opacity:1;stroke:none;stroke-width:1px;stroke-linecap:butt;stroke-linejoin:miter;stroke-opacity:1"
       x="979.59186"
       y="912.77039"
       id="text4318"
       sodipodi:linespacing="125%"><tspan
         sodipodi:role="line"
         id="tspan4320"
         x="979.59186"
         y="912.77039">Join!</tspan></text>
    <ellipse
       style="fill:none;fill-opacity:1;stroke:#040a0a;stroke-opacity:0.96815287"
       id="path4322"
       cx="1139.3877"
       cy="969.09705"
       rx="60.612244"
       ry="53.877548" />
    <text
       xml:space="preserve"
       style="font-style:normal;font-weight:normal;font-size:16.25px;line-height:125%;font-family:sans-serif;text-align:center;letter-spacing:0px;word-spacing:0px;text-anchor:middle;fill:#000000;fill-opacity:1;stroke:none;stroke-width:1px;stroke-linecap:butt;stroke-linejoin:miter;stroke-opacity:1"
       x="1143.6735"
       y="893.17859"
       id="text4324"
       sodipodi:linespacing="125%"><tspan
         sodipodi:role="line"
         id="tspan4326"
         x="1143.6735"
         y="893.17859">Review Badge</tspan></text>
    <rect
       style="fill:none;fill-opacity:1;stroke:#040a0a;stroke-opacity:0.96815287"
       id="rect4328"
       width="50.204082"
       height="142.04082"
       x="2.4489796"
       y="867.46436" />
    <text
       xml:space="preserve"
       style="font-style:normal;font-weight:normal;font-size:16.25px;line-height:125%;font-family:sans-serif;text-align:center;letter-spacing:0px;word-spacing:0px;text-anchor:middle;fill:#000000;fill-opacity:1;stroke:none;stroke-width:1px;stroke-linecap:butt;stroke-linejoin:miter;stroke-opacity:1"
       x="34.285713"
       y="917.6684"
       id="text4330"
       sodipodi:linespacing="125%"><tspan
         sodipodi:role="line"
         id="tspan4332"
         x="34.285713"
         y="917.6684">Reviews</tspan><tspan
         sodipodi:role="line"
         x="34.285713"
         y="937.9809"
         id="tspan4334">Tab</tspan></text>
    <text
       xml:space="preserve"
       style="font-style:normal;font-weight:normal;font-size:16.25px;line-height:125%;font-family:sans-serif;text-align:start;letter-spacing:0px;word-spacing:0px;text-anchor:start;fill:#ff00ff;fill-opacity:1;stroke:none;stroke-width:1px;stroke-linecap:butt;stroke-linejoin:miter;stroke-opacity:1;"
       x="11.591897"
       y="-370.49484"
       id="text4336"
       sodipodi:linespacing="125%"><tspan
         sodipodi:role="line"
         id="tspan4338"
         x="11.591897"
         y="-370.49484">Promo Area</tspan></text>
    <path
       style="fill:#fbf8f3;fill-opacity:1;stroke:#040a0a;stroke-width:1.22448981;stroke-opacity:0.96815287"
       d="m 2.1201953,64.698656 0,-36.734694 637.9591847,0 637.95922,0 0,36.734694 0,36.734694 -637.95922,0 -637.9591847,0 0,-36.734694 z M 475.95555,86.149047 c 6.48819,-3.355176 10.30162,-9.807641 10.774,-18.230037 0.73044,-13.0234 -6.39769,-21.59251 -17.9537,-21.583124 -7.83356,0.0064 -12.79075,3.319335 -15.47205,10.340224 -2.55856,6.699511 -1.27548,13.130764 3.51818,17.634162 9.43208,8.860985 24.63335,-1.183738 19.34766,-12.78458 -3.19293,-7.007704 -13.64128,-6.446955 -13.64128,0.732107 0,4.134395 2.925,6.17627 5.28639,3.690311 1.14196,-1.202199 0.86554,-1.348639 -1.3068,-0.69232 -2.35094,0.710279 -2.7551,0.377532 -2.7551,-2.268272 0,-4.432826 4.12566,-6.423488 8.02185,-3.870604 6.14246,4.024689 4.87074,12.939774 -2.34029,16.406113 -9.46422,4.549449 -18.86643,-6.515907 -15.14037,-17.818538 3.18439,-9.659518 16.36227,-13.454764 24.10271,-6.94161 13.07341,11.000548 8.18322,31.478493 -8.59612,35.996699 -9.48813,2.554888 -19.2184,-2.631069 -23.93264,-12.755417 -8.3202,-17.868563 3.71538,-37.352724 23.12827,-37.441878 7.31555,-0.0336 12.66949,2.156029 17.78853,7.275062 9.12983,9.129831 11.55332,21.696703 6.97478,36.167433 -0.42617,1.346939 0.19484,0.795918 1.38001,-1.22449 2.83733,-4.836888 2.83008,-19.003041 -0.013,-25.43544 -5.39815,-12.213155 -15.98028,-18.73318 -28.88885,-17.799459 -9.83778,0.711601 -16.50949,5.252288 -21.25656,14.466968 -2.99376,5.811275 -3.38947,7.751309 -2.90654,14.250123 1.42308,19.15085 18.20602,29.992379 33.88094,21.886567 l -4e-5,0 z m 376.57281,-0.499424 c 8.91012,-4.112288 12.87286,-10.509895 12.837,-20.724559 -0.0368,-10.47084 -8.26673,-19.818245 -17.44907,-19.818245 -9.78996,0 -16.80391,7.271677 -16.81193,17.429661 -0.004,4.678693 0.6847,6.568448 3.56845,9.795918 3.06855,3.4343 4.38017,3.998911 9.28969,3.998911 4.74541,0 6.21877,-0.583712 8.67187,-3.43563 3.21158,-3.733672 3.75753,-8.058227 1.54741,-12.257114 -1.83482,-3.485867 -3.41702,-4.469721 -7.22485,-4.492587 -3.88268,-0.02331 -6.06123,2.052279 -6.06123,5.774782 0,3.344567 3.20165,5.016295 5.28639,2.760268 1.14586,-1.240003 0.99114,-1.406122 -0.7409,-0.795479 -2.961,1.043918 -4.21455,-2.491602 -1.75534,-4.950802 2.68316,-2.683163 8.00846,-1.10136 9.50006,2.82186 2.58946,6.810782 -1.88842,12.982865 -9.41913,12.982865 -9.63613,0 -14.61138,-11.562925 -8.96214,-20.828787 5.18941,-8.511653 16.41616,-9.417553 23.90479,-1.928911 12.09301,12.093016 2.89748,33.533208 -14.38214,33.533208 -6.79764,0 -11.13494,-1.890261 -15.90471,-6.931499 -4.42377,-4.675546 -5.89812,-9.025716 -5.87408,-17.331889 0.024,-8.312654 3.2191,-14.695234 10.15092,-20.277957 3.958,-3.18769 5.91285,-3.824492 12.96333,-4.22288 13.10636,-0.740575 21.70903,4.935786 26.50252,17.487354 2.81228,7.363841 1.98308,20.715636 -1.67115,26.9091 -1.41737,2.402274 -2.09377,4.367771 -1.50309,4.367771 0.59068,0 2.34464,-2.617347 3.89771,-5.816326 4.30361,-8.864513 3.97579,-20.794215 -0.81594,-29.693878 -8.6254,-16.019918 -28.18328,-20.52385 -41.49066,-9.554777 -15.78867,13.014351 -12.25606,39.143319 6.18063,45.715053 6.40131,2.281742 9.95679,2.165502 15.76559,-0.515431 z M 659.82309,81.091826 c 1.97747,-1.789599 2.2971,-3.926603 2.2971,-15.358462 0,-10.987768 -0.31698,-13.279606 -1.83673,-13.279606 -1.01021,0 -1.83674,0.661224 -1.83674,1.469387 0,1.142857 -0.32653,1.142857 -1.46938,0 -2.35242,-2.352418 -8.51476,-1.71945 -11.61496,1.193038 -4.19382,3.939893 -4.02471,13.40107 0.31716,17.742932 2.57732,2.577318 3.92937,3.024901 7.42432,2.457749 3.56783,-0.578981 4.20563,-0.350383 3.86417,1.384995 -0.31569,1.60439 -1.73017,2.078429 -6.20181,2.078429 -4.60495,0 -5.79245,0.421008 -5.79087,2.053073 0.004,3.914132 10.60437,4.098664 14.84774,0.258465 z m -43.00902,-7.821742 c 0,-2.176871 -0.81633,-2.448979 -7.34694,-2.448979 l -7.34694,0 0,-12.857143 c 0,-12.040816 -0.15548,-12.857143 -2.44898,-12.857143 -2.31836,0 -2.44898,0.816327 -2.44898,15.306122 l 0,15.306123 9.79592,0 c 8.97959,0 9.79592,-0.204082 9.79592,-2.44898 z m 18.046,0.577051 c 2.96844,-2.079168 4.68187,-8.69333 3.48619,-13.457291 -2.0508,-8.171051 -12.8051,-11.021376 -17.76985,-4.709728 -3.54358,4.504944 -3.47941,13.36866 0.12457,17.204926 3.15269,3.35588 10.0704,3.825928 14.15909,0.962093 z m 49.28338,0.656839 c 2.97424,-1.591768 5.24148,-8.641333 4.19684,-13.049376 -2.80597,-11.840447 -18.12433,-12.201359 -20.69711,-0.48764 -0.9853,4.486081 1.22497,11.827569 4.05866,13.480935 2.68126,1.564432 9.56525,1.595463 12.44161,0.05608 z"
       id="path4340"
       inkscape:connector-curvature="0"
       transform="translate(0,-387.6377)" />
    <path
       style="fill:#fffcf6;fill-opacity:1;stroke:#040a0a;stroke-width:1.22448981;stroke-opacity:0.96815287"
       d="m 5.7936647,428.37212 0,-298.77551 637.3469353,0 637.3469,0 0,298.77551 0,298.77551 -637.3469,0 -637.3469353,0 0,-298.77551 z M 765.00045,311.12584 c 2.09317,-2.66102 2.42586,-4.98205 2.42586,-16.92373 l 0,-13.83975 -5.20408,-0.15258 c -2.86224,-0.0839 -6.56651,-0.16912 -8.23169,-0.18932 -1.7887,-0.0217 -4.16876,1.28993 -5.81633,3.20533 -3.78045,4.39504 -3.95099,14.86557 -0.30584,18.77817 3.19292,3.4272 7.92463,4.59154 11.68905,2.87635 3.58805,-1.63482 4.06874,0.24918 0.94442,3.70152 -2.25152,2.48789 -6.68436,2.90614 -10.29888,0.97171 -2.04473,-1.09431 -2.36848,-0.85385 -2.36848,1.75915 0,2.51973 0.6666,3.09099 3.97959,3.41042 6.80913,0.65652 10.66851,-0.39632 13.18638,-3.59727 z m -231.42476,2.12983 c 3.30476,-1.76865 4.85635,-8.69419 4.8642,-21.71146 l 0.007,-11.31772 -5.20408,-0.0753 c -2.86225,-0.0415 -6.82204,-0.11927 -8.79953,-0.17301 -9.05952,-0.24605 -12.95638,15.09178 -5.68242,22.36574 3.73906,3.73907 7.19474,4.45264 11.1951,2.31172 3.00869,-1.61021 3.32037,1.36524 0.44428,4.24132 -2.21096,2.21098 -5.14788,2.43364 -9.62874,0.73002 -2.654,-1.00904 -3.14094,-0.85085 -3.14094,1.02041 0,1.21802 0.36735,2.58194 0.81633,3.03091 1.27326,1.27328 12.54873,0.95834 15.12897,-0.42257 l -5.2e-4,-6e-5 z m -99.2106,-10.86318 c 0,-2.50085 0.71431,-3.71746 2.44898,-4.17108 1.34694,-0.35224 2.44898,-1.51854 2.44898,-2.59179 0,-1.13504 -1.02449,-1.95137 -2.44898,-1.95137 -2.26757,0 -2.44898,-0.81633 -2.44898,-11.02041 l 0,-11.02041 -3.36735,0.0192 c -2.87648,0.0164 -4.39369,1.58796 -10.40816,10.781 -3.87245,5.91899 -7.04081,11.97157 -7.04081,13.45018 0,2.46949 0.59823,2.68839 7.34693,2.68839 7.34694,0 7.34694,0 7.34694,3.67347 0,3.10203 0.47619,3.67347 3.06123,3.67347 2.55752,0 3.06122,-0.58095 3.06122,-3.53066 z m 29.38776,-14.22445 c 0,-16.93877 -0.11253,-17.7551 -2.44898,-17.7551 -2.33639,0 -2.44898,0.81633 -2.44898,17.7551 0,16.93877 0.11253,17.7551 2.44898,17.7551 2.33638,0 2.44898,-0.81633 2.44898,-17.7551 z m 27.97338,7.15118 c -0.53505,-12.85214 -2.66777,-15.62732 -11.90252,-15.48801 -6.99111,0.10543 -8.72392,0.8907 -8.72392,3.95327 0,1.9798 0.50877,2.0708 4.95019,0.88531 3.43809,-0.91769 5.56654,-0.9325 6.96794,-0.0485 3.77848,2.3834 2.89277,3.82732 -2.73697,4.46188 -6.85641,0.77281 -10.40565,3.72939 -10.40565,8.66805 0,6.46051 2.74313,8.11167 13.12451,7.89993 l 9.14877,-0.18661 -0.42235,-10.1453 0,-3e-5 z m 12.43478,1.61003 c 0,-9.97713 2.34118,-14.00117 7.3793,-12.68366 2.0856,0.5454 2.49136,0.17553 2.18253,-1.98952 -0.26547,-1.8611 -1.11433,-2.55883 -2.82772,-2.32425 -1.34662,0.18436 -4.51472,0.35664 -7.04023,0.38286 l -4.59184,0.0476 0,12.78039 c 0,11.96406 0.15643,12.7804 2.44898,12.7804 2.2267,0 2.44898,-0.81634 2.44898,-8.99389 l 0,4e-5 z m 60.51209,8.25064 c 2.77724,-1.06572 2.58124,-5.73566 -0.20597,-4.90762 -7.07102,2.10071 -9.05648,2.14182 -11.9477,0.24742 -5.76294,-3.77602 -3.94147,-5.61695 5.55755,-5.61695 9.8298,0 10.84405,-0.95665 8.51056,-8.02718 -1.07229,-3.24909 -2.59658,-4.92535 -5.63213,-6.19369 -13.38286,-5.59172 -23.79757,11.8188 -13.33088,22.2855 2.33073,2.33073 4.24106,2.95577 9.03374,2.95577 3.34287,0 6.94955,-0.33445 8.01483,-0.74325 z m 38.91362,-2.99727 c 3.65757,-4.91465 1.39879,-9.17631 -6.00843,-11.33615 -4.34014,-1.26554 -5.86626,-2.31426 -5.86626,-4.03121 0,-2.01711 0.84095,-2.28579 6.42857,-2.05392 4.83933,0.20083 6.42857,-0.1597 6.42857,-1.45834 0,-2.55697 -2.01348,-3.37056 -8.58693,-3.46972 -7.18064,-0.10836 -9.78041,1.81404 -9.78041,7.23197 0,4.58394 2.74365,7.02027 9.48979,8.42682 2.75966,0.57539 3.97959,1.52535 3.97959,3.09892 0,2.58044 -3.71036,4.16063 -7.34694,3.12896 l -4.89795,-1.38953 c -1.85954,-0.52753 -2.44898,-0.11008 -2.44898,1.7347 0,3.16668 1.67271,3.76902 9.67124,3.48253 5.5149,-0.19753 6.99571,-0.75503 8.93814,-3.36503 z m 25.25157,0.371 c 0.35644,-2.50985 0.10163,-2.64703 -2.84007,-1.52862 -6.74824,2.56568 -11.63313,-0.99968 -11.63313,-8.49075 0,-5.78402 4.03842,-9.10236 9.93085,-8.16013 4.12058,0.65891 4.76303,0.45 4.76303,-1.54875 0,-5.0147 -14.00437,-3.92637 -17.71901,1.377 -1.0912,1.55792 -1.87283,5.30119 -1.87283,8.96911 0,5.19639 0.57332,6.86858 3.28445,9.57971 2.83656,2.83655 4.13068,3.23504 9.4898,2.92209 5.37303,-0.31378 6.25786,-0.73221 6.59691,-3.11966 z m 11.44325,-5.93471 c 0.51618,-10.22174 2.69156,-13.50124 8.06314,-12.15561 2.18577,0.54755 2.7551,0.17134 2.7551,-1.82056 0,-3.44842 -2.86051,-4.24329 -7.30011,-2.02853 -2.04616,1.02076 -3.72029,1.34714 -3.72029,0.72529 0,-0.62185 -1.10204,-1.13064 -2.44898,-1.13064 -2.2935,0 -2.44898,0.81633 -2.44898,12.85714 0,11.79306 0.19161,12.85714 2.31514,12.85714 2.02619,0 2.37378,-1.16128 2.78498,-9.30423 z m 31.07798,6.29866 c 2.45044,-2.45042 3.00557,-4.22925 3.00557,-9.63078 0,-11.07377 -7.09477,-16.48714 -16.47269,-12.5688 -7.26414,3.03515 -8.96916,15.91689 -2.9542,22.31952 3.85917,4.10788 12.25483,4.04656 16.42132,-0.12 l 0,6e-5 z m 14.02598,-14.74953 c 0,-16.93877 -0.11253,-17.7551 -2.44898,-17.7551 -2.33639,0 -2.44898,0.81633 -2.44898,17.7551 0,16.93877 0.11253,17.7551 2.44898,17.7551 2.33639,0 2.44898,-0.81633 2.44898,-17.7551 z m 12.2449,0 c 0,-16.93877 -0.11253,-17.7551 -2.44898,-17.7551 -2.33639,0 -2.44898,0.81633 -2.44898,17.7551 0,16.93877 0.11253,17.7551 2.44898,17.7551 2.33638,0 2.44898,-0.81633 2.44898,-17.7551 z m 13.46938,4.89796 0,-12.85714 -3.06122,0 -3.06122,0 0,12.85714 0,12.85714 3.06122,0 3.06122,0 0,-12.85714 z m 12.2449,3.76094 c 0,-9.53351 1.57187,-12.94461 5.96502,-12.94461 3.96781,0 5.05539,2.68696 5.05539,12.48979 0,8.73469 0.20931,9.55102 2.44898,9.55102 2.25437,0 2.44898,-0.81633 2.44898,-10.27251 0,-8.03342 -0.47614,-10.86051 -2.18447,-12.9702 -2.19113,-2.70595 -3.37392,-2.89711 -13.7339,-2.21964 l -5.5102,0.36031 -0.35684,10.92351 c -0.41094,12.57903 -0.0297,14.17853 3.37964,14.17853 2.27699,0 2.4874,-0.76948 2.4874,-9.0962 z m 82.04082,6.64722 c 4.92059,-4.92058 1.54224,-11.38517 -6.76416,-12.94345 -9.00221,-1.68883 -6.30889,-7.25779 2.89191,-5.97954 4.64537,0.64537 5.25875,0.46446 4.89148,-1.44262 -0.62215,-3.23057 -8.59843,-4.57162 -13.93323,-2.34261 -3.65631,1.52771 -4.22886,2.33535 -4.22886,5.9652 0,4.91811 1.23917,6.15333 8.26531,8.23896 3.65395,1.08464 5.20408,2.20956 5.20408,3.7766 0,2.88306 -4.56552,4.03431 -9.12474,2.30089 -4.28874,-1.63058 -6.80071,0.0795 -4.38771,2.98693 2.43876,2.93853 14.06615,2.55941 17.18592,-0.56036 z m 12.2449,-15.30612 c 0,-16.93877 -0.11253,-17.7551 -2.44898,-17.7551 -2.33639,0 -2.44898,0.81633 -2.44898,17.7551 0,16.93877 0.11253,17.7551 2.44898,17.7551 2.33638,0 2.44898,-0.81633 2.44898,-17.7551 z m 13.20609,4.59184 0.34897,-12.55102 -3.10407,0 -3.10406,0 0,12.9423 c 0,12.72127 0.047,12.93563 2.75511,12.55103 2.62566,-0.37291 2.77149,-0.98094 3.10405,-12.94231 z m 22.05921,11.69388 c 1.14286,-1.14286 1.46939,-1.14286 1.46939,0 0,0.80816 1.10204,1.46938 2.44898,1.46938 2.33639,0 2.44898,-0.81633 2.44898,-17.7551 0,-16.93877 -0.11253,-17.7551 -2.44898,-17.7551 -2.11736,0 -2.44898,0.81633 -2.44898,6.0286 l 0,6.0286 -3.59356,-1.79271 c -3.13947,-1.56617 -4.12828,-1.56928 -7.82511,-0.0246 -7.41882,3.09977 -9.19799,15.90463 -3.11026,22.38473 2.99572,3.18878 10.47582,3.99997 13.05954,1.41624 l 0,-3e-5 z m 32.59373,0.72613 c 1.06529,-0.40878 1.93688,-1.82347 1.93688,-3.14374 0,-1.96325 -0.50182,-2.2221 -2.7551,-1.42111 -6.70169,2.38232 -14.38775,-0.14014 -14.38775,-4.72185 0,-0.54475 4.2052,-0.99045 9.3449,-0.99045 l 9.3449,0 -0.66339,-4.94599 c -0.81606,-6.08418 -2.33093,-8.00292 -7.72348,-9.78262 -9.54545,-3.15028 -18.15031,6.44937 -15.23742,16.99899 1.66125,6.01653 5.48776,8.68946 12.4874,8.72279 3.1439,0.0149 6.58778,-0.30722 7.65306,-0.71602 z m 23.70524,-1.16291 c 3.31835,-2.32426 3.62297,-7.93002 0.57858,-10.64729 -1.17857,-1.05193 -4.48469,-2.53612 -7.34694,-3.2982 -8.8697,-2.36158 -5.22874,-7.38519 4.08605,-5.63774 3.57559,0.67079 4.17926,0.44488 4.17926,-1.56393 0,-1.79886 -1.1646,-2.53419 -4.97985,-3.14427 -13.48759,-2.15675 -18.94395,11.09223 -6.09965,14.811 7.22501,2.09184 8.70267,3.69301 5.5693,6.03485 -2.32162,1.73515 -5.87735,1.66755 -10.71429,-0.20372 -1.60799,-0.62207 -2.14286,-0.21049 -2.14286,1.64895 0,1.36287 0.68878,2.75587 1.53062,3.09556 3.41806,1.37922 12.75922,0.71229 15.33978,-1.09521 z M 711.09978,273.47416 c 0,-2.44897 -0.61224,-3.06122 -3.06122,-3.06122 -2.44898,0 -3.06122,0.61225 -3.06122,3.06122 0,2.44898 0.61224,3.06123 3.06122,3.06123 2.44898,0 3.06122,-0.61225 3.06122,-3.06123 z m 120,0 c 0,-2.44897 -0.61224,-3.06122 -3.06122,-3.06122 -2.44898,0 -3.06123,0.61225 -3.06123,3.06122 0,2.44898 0.61225,3.06123 3.06123,3.06123 2.44898,0 3.06122,-0.61225 3.06122,-3.06123 z"
       id="path4360"
       inkscape:connector-curvature="0"
       transform="translate(0,-387.6377)" />
    <rect
       style="fill:none;fill-opacity:1;stroke:#040a0a;stroke-opacity:0.96815287"
       id="rect4368"
       width="1281.4507"
       height="46.75563"
       x="0"
       y="344.10107" />
  </g>
</svg>
