<?xml version="1.0" encoding="UTF-8" standalone="no"?>
<!-- Created with Inkscape (http://www.inkscape.org/) -->

<svg
   xmlns:dc="http://purl.org/dc/elements/1.1/"
   xmlns:cc="http://creativecommons.org/ns#"
   xmlns:rdf="http://www.w3.org/1999/02/22-rdf-syntax-ns#"
   xmlns:svg="http://www.w3.org/2000/svg"
   xmlns="http://www.w3.org/2000/svg"
   xmlns:sodipodi="http://sodipodi.sourceforge.net/DTD/sodipodi-0.dtd"
   xmlns:inkscape="http://www.inkscape.org/namespaces/inkscape"
   width="1280"
   height="1440"
   viewBox="0 0 1280 1440"
   id="svg4148"
   version="1.1"
   inkscape:version="0.91 r13725"
   sodipodi:docname="tcellismockup.svg">
  <defs
     id="defs4150" />
  <sodipodi:namedview
     id="base"
     pagecolor="#ffffff"
     bordercolor="#666666"
     borderopacity="1.0"
     inkscape:pageopacity="0.0"
     inkscape:pageshadow="2"
     inkscape:zoom="0.8160474"
     inkscape:cx="660.55433"
     inkscape:cy="1113.6378"
     inkscape:document-units="px"
     inkscape:current-layer="layer1"
     showgrid="true"
     units="px"
     inkscape:showpageshadow="false"
     showguides="true"
     inkscape:snap-to-guides="true"
     inkscape:snap-grids="false"
     inkscape:window-width="1440"
     inkscape:window-height="790"
     inkscape:window-x="0"
     inkscape:window-y="1"
     inkscape:window-maximized="1"
     inkscape:guide-bbox="true"
     borderlayer="false">
    <sodipodi:guide
       position="640.40816,563.2653"
       orientation="1,0"
       id="guide3380" />
    <inkscape:grid
       type="xygrid"
       id="grid4182" />
  </sodipodi:namedview>
  <metadata
     id="metadata4153">
    <rdf:RDF>
      <cc:Work
         rdf:about="">
        <dc:format>image/svg+xml</dc:format>
        <dc:type
           rdf:resource="http://purl.org/dc/dcmitype/StillImage" />
        <dc:title></dc:title>
      </cc:Work>
    </rdf:RDF>
  </metadata>
  <g
     inkscape:label="Layer 1"
     inkscape:groupmode="layer"
     id="layer1"
     transform="translate(0,387.6377)">
    <rect
       style="fill:none"
       id="rect4156"
       width="1021.224"
       height="713.87799"
       x="720"
       y="338.48431" />
    <rect
       style="fill:none"
       id="rect4158"
       width="1280.653"
       height="562.04102"
       x="0"
       y="490.32135" />
    <rect
       style="fill:#fbf8f3;fill-opacity:1;stroke:#000000;stroke-width:1.00118101;stroke-opacity:1"
       id="rect4160"
       width="1278.9988"
       height="23.264126"
       x="0.50059062"
       y="-387.29565" />
    <rect
       style="fill:none;stroke:#000000;stroke-width:1.00024569;stroke-opacity:1"
       id="rect4178"
       width="1278.9998"
       height="75.918129"
       x="0.50012285"
       y="-361.29193" />
    <rect
       style="fill:#fbf8f3;fill-opacity:1;stroke:#000000;stroke-width:1.07048321;stroke-opacity:1"
       id="rect4180"
       width="1280.7699"
       height="23.809389"
       x="-0.12527274"
       y="-283.75531" />
    <rect
       style="fill:#fbf8f3;fill-opacity:1;stroke:#000000;stroke-width:0.86524141;stroke-opacity:1"
       id="rect4182"
       width="1279.1348"
       height="448.97049"
       x="0.43262091"
       y="392.25449" />
    <text
       xml:space="preserve"
       style="font-style:normal;font-weight:normal;font-size:40px;line-height:125%;font-family:sans-serif;text-align:center;letter-spacing:0px;word-spacing:0px;text-anchor:middle;fill:#000000;fill-opacity:1;stroke:none;stroke-width:1px;stroke-linecap:butt;stroke-linejoin:miter;stroke-opacity:1"
       x="642.26282"
       y="-312.52258"
       id="text4184"
       sodipodi:linespacing="125%"><tspan
         sodipodi:role="line"
         id="tspan4186"
         x="642.26282"
         y="-312.52258">Logo</tspan></text>
    <text
       xml:space="preserve"
       style="font-style:normal;font-weight:normal;font-size:9.78033066px;line-height:125%;font-family:sans-serif;text-align:center;letter-spacing:0px;word-spacing:0px;text-anchor:middle;fill:#000000;fill-opacity:1;stroke:none;stroke-width:1px;stroke-linecap:butt;stroke-linejoin:miter;stroke-opacity:1"
       x="920.72644"
       y="-366.81967"
       id="text4188"
       sodipodi:linespacing="125%"
       transform="scale(0.97803307,1.0224603)"><tspan
         sodipodi:role="line"
         id="tspan4190"
         x="922.28326"
         y="-366.81967">My account  </tspan></text>
    <text
       xml:space="preserve"
       style="font-style:normal;font-weight:normal;font-size:10px;line-height:125%;font-family:sans-serif;text-align:center;letter-spacing:0px;word-spacing:0px;text-anchor:middle;fill:#000000;fill-opacity:1;stroke:none;stroke-width:1px;stroke-linecap:butt;stroke-linejoin:miter;stroke-opacity:1"
       x="1002.3785"
       y="-374.19275"
       id="text4192"
       sodipodi:linespacing="125%"><tspan
         sodipodi:role="line"
         id="tspan4194"
         x="1002.3785"
         y="-374.19275">Wishlist</tspan></text>
    <text
       xml:space="preserve"
       style="font-style:normal;font-weight:normal;font-size:10px;line-height:125%;font-family:sans-serif;text-align:center;letter-spacing:0px;word-spacing:0px;text-anchor:middle;fill:#000000;fill-opacity:1;stroke:none;stroke-width:1px;stroke-linecap:butt;stroke-linejoin:miter;stroke-opacity:1"
       x="1130.2146"
       y="-374.80496"
       id="text4196"
       sodipodi:linespacing="125%"><tspan
         sodipodi:role="line"
         id="tspan4198"
         x="1130.2146"
         y="-374.80496">Shopping Cart</tspan></text>
    <path
       sodipodi:type="star"
       style="fill:none;stroke:#000000;stroke-opacity:1"
       id="path4200"
       sodipodi:sides="5"
       sodipodi:cx="1042.026"
       sodipodi:cy="-377.0004"
       sodipodi:r1="10.53346"
       sodipodi:r2="5.2667298"
       sodipodi:arg1="0.95054684"
       sodipodi:arg2="1.5788654"
       inkscape:flatsided="false"
       inkscape:rounded="0"
       inkscape:randomized="0"
       d="m 1048.1485,-368.42897 -6.165,-3.30487 -6.2175,3.20496 1.2381,-6.88448 -4.9694,-4.92278 6.9301,-0.94997 3.1462,-6.2474 3.045,6.29736 6.9139,1.06168 -5.0482,4.84195 z"
       inkscape:transform-center-x="-0.019971889"
       inkscape:transform-center-y="-0.86662931"
       transform="matrix(0.76020521,0,0,0.88355395,247.28185,-45.325441)" />
    <ellipse
       style="fill:none;stroke:#000000;stroke-opacity:1"
       id="path4202"
       cx="1199.2933"
       cy="-378.37338"
       rx="17.142857"
       ry="4.8979592" />
    <text
       xml:space="preserve"
       style="font-style:normal;font-weight:normal;font-size:10px;line-height:125%;font-family:sans-serif;text-align:center;letter-spacing:0px;word-spacing:0px;text-anchor:middle;fill:#000000;fill-opacity:1;stroke:none;stroke-width:1px;stroke-linecap:butt;stroke-linejoin:miter;stroke-opacity:1"
       x="57.707031"
       y="-270.3212"
       id="text4204"
       sodipodi:linespacing="125%"><tspan
         sodipodi:role="line"
         id="tspan4206"
         x="57.707031"
         y="-270.3212">New</tspan></text>
    <text
       xml:space="preserve"
       style="font-style:normal;font-weight:normal;font-size:10px;line-height:125%;font-family:sans-serif;text-align:center;letter-spacing:0px;word-spacing:0px;text-anchor:middle;fill:#000000;fill-opacity:1;stroke:none;stroke-width:1px;stroke-linecap:butt;stroke-linejoin:miter;stroke-opacity:1"
       x="198.55038"
       y="-269.45535"
       id="text4208"
       sodipodi:linespacing="125%"><tspan
         sodipodi:role="line"
         id="tspan4210"
         x="198.55038"
         y="-269.45535">Clothing</tspan></text>
    <text
       xml:space="preserve"
       style="font-style:normal;font-weight:normal;font-size:10px;line-height:125%;font-family:sans-serif;text-align:center;letter-spacing:0px;word-spacing:0px;text-anchor:middle;fill:#000000;fill-opacity:1;stroke:none;stroke-width:1px;stroke-linecap:butt;stroke-linejoin:miter;stroke-opacity:1"
       x="549.41028"
       y="-269.76147"
       id="text4212"
       sodipodi:linespacing="125%"><tspan
         sodipodi:role="line"
         id="tspan4214"
         x="549.41028"
         y="-269.76147">Shoes &amp; Accessories</tspan></text>
    <text
       xml:space="preserve"
       style="font-style:normal;font-weight:normal;font-size:10px;line-height:125%;font-family:sans-serif;text-align:center;letter-spacing:0px;word-spacing:0px;text-anchor:middle;fill:#000000;fill-opacity:1;stroke:none;stroke-width:1px;stroke-linecap:butt;stroke-linejoin:miter;stroke-opacity:1"
       x="1040.9213"
       y="-269.814"
       id="text4216"
       sodipodi:linespacing="125%"><tspan
         sodipodi:role="line"
         id="tspan4218"
         x="1040.9213"
         y="-269.814">Sale</tspan></text>
    <text
       xml:space="preserve"
       style="font-style:normal;font-weight:normal;font-size:10px;line-height:125%;font-family:sans-serif;text-align:center;letter-spacing:0px;word-spacing:0px;text-anchor:middle;fill:#000000;fill-opacity:1;stroke:none;stroke-width:1px;stroke-linecap:butt;stroke-linejoin:miter;stroke-opacity:1"
       x="1197.575"
       y="-270.34824"
       id="text4224"
       sodipodi:linespacing="125%"><tspan
         sodipodi:role="line"
         id="tspan4226"
         x="1197.575"
         y="-270.34824">Search</tspan></text>
    <text
       xml:space="preserve"
       style="font-style:normal;font-weight:normal;font-size:10px;line-height:125%;font-family:sans-serif;text-align:center;letter-spacing:0px;word-spacing:0px;text-anchor:middle;fill:#000000;fill-opacity:1;stroke:none;stroke-width:1px;stroke-linecap:butt;stroke-linejoin:miter;stroke-opacity:1"
       x="905.3526"
       y="-269.14923"
       id="text4228"
       sodipodi:linespacing="125%"><tspan
         sodipodi:role="line"
         id="tspan4230"
         x="905.3526"
         y="-269.14923">Looks We Love</tspan></text>
    <path
       sodipodi:type="spiral"
       style="fill:none;fill-rule:evenodd;stroke:#000000;stroke-width:1px;stroke-linecap:butt;stroke-linejoin:miter;stroke-opacity:1"
       id="path4232"
       sodipodi:cx="396.73468"
       sodipodi:cy="388.68881"
       sodipodi:expansion="1"
       sodipodi:revolution="3"
       sodipodi:radius="145.11624"
       sodipodi:argument="-18.299007"
       sodipodi:t0="0"
       d="m 396.73468,388.68881 c 6.20079,3.80642 -2.07173,10.2365 -6.32652,10.30613 -11.53023,0.18869 -16.64569,-13.41398 -14.28574,-22.95917 4.22141,-17.0741 24.19805,-23.73571 39.59182,-18.26534 22.59099,8.02798 30.99048,35.11199 22.24495,56.22447 -11.65641,28.13961 -46.0699,38.3127 -72.85712,26.22455 -33.70897,-15.2117 -45.66928,-57.04823 -30.20416,-89.48976 18.73034,-39.29105 68.03797,-53.04566 106.12242,-34.18377 44.8812,22.22808 60.43443,79.03479 38.16337,122.75506 -25.71281,50.47678 -90.03635,67.83148 -139.38771,42.14298 -56.07615,-29.18891 -75.23432,-101.04124 -46.12259,-156.02036 32.65898,-61.67826 112.04856,-82.64138 172.65301,-50.10219 67.28243,36.12467 90.05159,123.05771 54.0818,189.28566"
       transform="matrix(0.21262974,0,0,0.2260563,382.72873,-410.92274)" />
    <path
       sodipodi:type="spiral"
       style="fill:none;fill-rule:evenodd;stroke:#553c3c;stroke-width:1px;stroke-linecap:butt;stroke-linejoin:miter;stroke-opacity:0.30128205"
       id="path4236"
       sodipodi:cx="722.44897"
       sodipodi:cy="391.13782"
       sodipodi:expansion="1"
       sodipodi:revolution="3"
       sodipodi:radius="36.4067"
       sodipodi:argument="-18.11174"
       sodipodi:t0="0"
       d="m 722.44897,391.13782 c 1.35067,1.22788 -0.98878,2.42646 -2.04081,2.24489 -2.85094,-0.49203 -3.47652,-4.08393 -2.44898,-6.32653 1.83804,-4.01148 7.07329,-4.72046 10.61225,-2.65305 5.19356,3.03401 5.99895,10.10236 2.85713,14.89796 -4.18756,6.39179 -13.14541,7.29202 -19.18368,3.06121 -7.59854,-5.32404 -8.5926,-16.19511 -3.26528,-23.46939 6.45208,-8.81014 19.24853,-9.89752 27.7551,-3.46937 10.0247,7.57536 11.20517,22.30429 3.67345,32.04082 -8.69568,11.24121 -25.3616,12.51465 -36.32654,3.87753 -12.45906,-9.81405 -13.82538,-28.42 -4.0816,-40.61225 10.93105,-13.67787 31.47919,-15.13706 44.89796,-4.28568 14.89738,12.04707 16.44941,34.53898 4.48976,49.18367"
       transform="matrix(0.84835765,0,0,0.89615348,232.77232,-674.48068)" />
    <path
       style="fill:none;stroke:#000000;stroke-width:1.22448981;stroke-opacity:1"
       d="m 4.7695026,41.075258 0,-299.999998 638.5714274,0 638.57147,0 0,299.999998 0,300.000002 -638.57147,0 -638.5714274,0 0,-300.000002 z"
       id="path4238"
       inkscape:connector-curvature="0" />
    <text
       xml:space="preserve"
       style="font-style:normal;font-weight:normal;font-size:45px;line-height:125%;font-family:sans-serif;text-align:center;letter-spacing:0px;word-spacing:0px;text-anchor:middle;fill:#000000;fill-opacity:1;stroke:none;stroke-width:1px;stroke-linecap:butt;stroke-linejoin:miter;stroke-opacity:1"
       x="662.92017"
       y="-82.420433"
       id="text3374"
       sodipodi:linespacing="125%"><tspan
         sodipodi:role="line"
         id="tspan3376"
         x="662.92017"
         y="-82.420433" /></text>
    <text
       xml:space="preserve"
       style="font-style:normal;font-weight:normal;font-size:18.35692978px;line-height:125%;font-family:sans-serif;text-align:center;letter-spacing:0px;word-spacing:0px;text-anchor:middle;fill:#000000;fill-opacity:1;stroke:none;stroke-width:1px;stroke-linecap:butt;stroke-linejoin:miter;stroke-opacity:1"
       x="565.11298"
       y="422.24014"
       id="text4185"
       sodipodi:linespacing="125%"
       transform="scale(1.1296572,0.8852243)"><tspan
         sodipodi:role="line"
         id="tspan4187"
         x="565.11298"
         y="422.24014"> Shop Instagram</tspan></text>
    <rect
       style="fill:none;fill-opacity:1;stroke:#000000;stroke-opacity:1"
       id="rect4189"
       width="260"
       height="320"
       x="44.585918"
       y="452.3623" />
    <rect
       style="fill:none;fill-opacity:1;stroke:#000000;stroke-opacity:1"
       id="rect4191"
       width="260"
       height="320"
       x="362.07394"
       y="452.3623" />
    <rect
       style="fill:none;fill-opacity:1;stroke:#000000;stroke-opacity:1"
       id="rect4193"
       width="260"
       height="320"
       x="664.75702"
       y="452.3623" />
    <rect
       style="fill:none;fill-opacity:1;stroke:#000000;stroke-opacity:1"
       id="rect4195"
       width="260"
       height="320"
       x="980"
       y="452.3623" />
    <path
       style="fill:none;fill-rule:evenodd;stroke:#000000;stroke-width:1px;stroke-linecap:butt;stroke-linejoin:miter;stroke-opacity:1"
       d="m 464.13526,366.19803 c -140,0 -150,0 -150,0 l 30,-10 -20,10 10,10 0,0 0,0"
       id="path4197"
       inkscape:connector-curvature="0" />
    <path
       style="fill:#fbf8f3;fill-opacity:1;fill-rule:evenodd;stroke:#000000;stroke-width:0.99592537px;stroke-linecap:butt;stroke-linejoin:miter;stroke-opacity:1"
       d="m 980.11188,368.07968 c -138.85743,0 -148.77581,0 -148.77581,0 l 29.75515,-10.00029 -19.83677,10.00029 9.91839,10.00029 0,0 0,0"
       id="path4197-5"
       inkscape:connector-curvature="0" />
    <text
       xml:space="preserve"
       style="font-style:normal;font-weight:normal;font-size:16.25px;line-height:125%;font-family:sans-serif;text-align:center;letter-spacing:0px;word-spacing:0px;text-anchor:middle;fill:#000000;fill-opacity:1;stroke:none;stroke-width:1px;stroke-linecap:butt;stroke-linejoin:miter;stroke-opacity:1"
       x="120"
       y="582.3623"
       id="text4214"
       sodipodi:linespacing="125%"><tspan
         sodipodi:role="line"
         id="tspan4216"
         x="120"
         y="582.3623">Photo 1</tspan></text>
    <text
       xml:space="preserve"
       style="font-style:normal;font-weight:normal;font-size:16.25px;line-height:125%;font-family:sans-serif;text-align:center;letter-spacing:0px;word-spacing:0px;text-anchor:middle;fill:#000000;fill-opacity:1;stroke:none;stroke-width:1px;stroke-linecap:butt;stroke-linejoin:miter;stroke-opacity:1"
       x="460"
       y="592.3623"
       id="text4218"
       sodipodi:linespacing="125%"><tspan
         sodipodi:role="line"
         id="tspan4220"
         x="460"
         y="592.3623">Photo 2</tspan></text>
    <text
       xml:space="preserve"
       style="font-style:normal;font-weight:normal;font-size:16.25px;line-height:125%;font-family:sans-serif;text-align:center;letter-spacing:0px;word-spacing:0px;text-anchor:middle;fill:#000000;fill-opacity:1;stroke:none;stroke-width:1px;stroke-linecap:butt;stroke-linejoin:miter;stroke-opacity:1"
       x="760"
       y="592.3623"
       id="text4222"
       sodipodi:linespacing="125%"><tspan
         sodipodi:role="line"
         id="tspan4224"
         x="760"
         y="592.3623">Photo 3</tspan></text>
    <text
       xml:space="preserve"
       style="font-style:normal;font-weight:normal;font-size:16.25px;line-height:125%;font-family:sans-serif;text-align:center;letter-spacing:0px;word-spacing:0px;text-anchor:middle;fill:#000000;fill-opacity:1;stroke:none;stroke-width:1px;stroke-linecap:butt;stroke-linejoin:miter;stroke-opacity:1"
       x="1070"
       y="592.3623"
       id="text4226"
       sodipodi:linespacing="125%"><tspan
         sodipodi:role="line"
         id="tspan4228"
         x="1070"
         y="592.3623">Photo 4</tspan></text>
    <text
       xml:space="preserve"
       style="font-style:normal;font-weight:normal;font-size:16.25px;line-height:125%;font-family:sans-serif;text-align:center;letter-spacing:0px;word-spacing:0px;text-anchor:middle;fill:#000000;fill-opacity:1;stroke:none;stroke-width:1px;stroke-linecap:butt;stroke-linejoin:miter;stroke-opacity:1"
       x="256.30753"
       y="747.08704"
       id="text4230"
       sodipodi:linespacing="125%"
       transform="scale(0.84560404,1.1825866)"><tspan
         sodipodi:role="line"
         id="tspan4232"
         x="256.30753"
         y="747.08704">Customer Care</tspan></text>
    <text
       xml:space="preserve"
       style="font-style:normal;font-weight:normal;font-size:12.5px;line-height:125%;font-family:sans-serif;text-align:center;letter-spacing:0px;word-spacing:0px;text-anchor:middle;fill:#000000;fill-opacity:1;stroke:none;stroke-width:1px;stroke-linecap:butt;stroke-linejoin:miter;stroke-opacity:1"
       x="220.61224"
       y="906.23987"
       id="text4234"
       sodipodi:linespacing="125%"
       inkscape:transform-center-x="97.959183"
       inkscape:transform-center-y="1.2244898"><tspan
         sodipodi:role="line"
         id="tspan4236"
         x="220.61224"
         y="906.23987">My Account</tspan><tspan
         sodipodi:role="line"
         x="220.61224"
         y="921.86487"
         id="tspan4238">Order Status</tspan><tspan
         sodipodi:role="line"
         x="220.61224"
         y="937.48987"
         id="tspan4240">Shipping &amp; Returns</tspan><tspan
         sodipodi:role="line"
         x="220.61224"
         y="953.11487"
         id="tspan4246">Size Chart</tspan><tspan
         sodipodi:role="line"
         x="220.61224"
         y="968.73987"
         id="tspan4248">Gift Certificates</tspan><tspan
         sodipodi:role="line"
         x="220.61224"
         y="984.36487"
         id="tspan4284">Contact Us</tspan></text>
    <text
       xml:space="preserve"
       style="font-style:normal;font-weight:normal;font-size:16.25px;line-height:125%;font-family:sans-serif;text-align:center;letter-spacing:0px;word-spacing:0px;text-anchor:middle;fill:#000000;fill-opacity:1;stroke:none;stroke-width:1px;stroke-linecap:butt;stroke-linejoin:miter;stroke-opacity:1"
       x="418.57147"
       y="881.13782"
       id="text4258"
       sodipodi:linespacing="125%"><tspan
         sodipodi:role="line"
         id="tspan4260"
         x="418.57147"
         y="881.13782">Discover</tspan></text>
    <text
       xml:space="preserve"
       style="font-style:normal;font-weight:normal;font-size:12.5px;line-height:125%;font-family:sans-serif;text-align:center;letter-spacing:0px;word-spacing:0px;text-anchor:middle;fill:#000000;fill-opacity:1;stroke:none;stroke-width:1px;stroke-linecap:butt;stroke-linejoin:miter;stroke-opacity:1"
       x="419.59183"
       y="907.26025"
       id="text4262"
       sodipodi:linespacing="125%"><tspan
         sodipodi:role="line"
         id="tspan4264"
         x="419.59183"
         y="907.26025">About Us</tspan><tspan
         sodipodi:role="line"
         x="419.59183"
         y="922.88525"
         id="tspan4266">Lookbooks</tspan><tspan
         sodipodi:role="line"
         x="419.59183"
         y="938.51025"
         id="tspan4268">Blog</tspan><tspan
         sodipodi:role="line"
         x="419.59183"
         y="954.13525"
         id="tspan4270">Job Postings</tspan><tspan
         sodipodi:role="line"
         x="419.59183"
         y="969.76025"
         id="tspan4286">Share Your Style</tspan><tspan
         sodipodi:role="line"
         x="419.59183"
         y="985.38525"
         id="tspan4288" /></text>
    <text
       xml:space="preserve"
       style="font-style:normal;font-weight:normal;font-size:12.5px;line-height:125%;font-family:sans-serif;text-align:center;letter-spacing:0px;word-spacing:0px;text-anchor:middle;fill:#000000;fill-opacity:1;stroke:none;stroke-width:1px;stroke-linecap:butt;stroke-linejoin:miter;stroke-opacity:1"
       x="170"
       y="1002.3623"
       id="text4272"
       sodipodi:linespacing="125%"><tspan
         sodipodi:role="line"
         x="170"
         y="1002.3623"
         id="tspan4276" /><tspan
         sodipodi:role="line"
         x="170"
         y="1017.9873"
         id="tspan4280" /><tspan
         sodipodi:role="line"
         x="170"
         y="1033.6123"
         id="tspan4282" /></text>
    <text
       xml:space="preserve"
       style="font-style:normal;font-weight:normal;font-size:12.5px;line-height:125%;font-family:sans-serif;text-align:center;letter-spacing:0px;word-spacing:0px;text-anchor:middle;fill:#000000;fill-opacity:1;stroke:none;stroke-width:1px;stroke-linecap:butt;stroke-linejoin:miter;stroke-opacity:1"
       x="631.83673"
       y="1046.2399"
       id="text4294"
       sodipodi:linespacing="125%"><tspan
         sodipodi:role="line"
         id="tspan4296"
         x="631.83673"
         y="1046.2399">Privacy Policy and Terms of Use</tspan></text>
    <rect
       style="fill:none;fill-opacity:1;stroke:#0a0404;stroke-width:0.93142259;stroke-opacity:0.30128204"
       id="rect4298"
       width="379.6604"
       height="40.476742"
       x="575.47589"
       y="884.57288" />
    <text
       xml:space="preserve"
       style="font-style:normal;font-weight:normal;font-size:16.25px;line-height:125%;font-family:sans-serif;text-align:center;letter-spacing:0px;word-spacing:0px;text-anchor:middle;fill:#000000;fill-opacity:1;stroke:none;stroke-width:1px;stroke-linecap:butt;stroke-linejoin:miter;stroke-opacity:1"
       x="651.42859"
       y="877.26025"
       id="text4300"
       sodipodi:linespacing="125%"><tspan
         sodipodi:role="line"
         id="tspan4302"
         x="651.42859"
         y="877.26025">JOIN THE PARTY:</tspan></text>
    <text
       xml:space="preserve"
       style="font-style:normal;font-weight:normal;font-size:16.25px;line-height:125%;font-family:sans-serif;text-align:center;letter-spacing:0px;word-spacing:0px;text-anchor:middle;fill:#000000;fill-opacity:1;stroke:none;stroke-width:1px;stroke-linecap:butt;stroke-linejoin:miter;stroke-opacity:1"
       x="664.89795"
       y="909.09692"
       id="text4304"
       sodipodi:linespacing="125%"><tspan
         sodipodi:role="line"
         id="tspan4306"
         x="664.89795"
         y="909.09692">Email Address</tspan></text>
    <rect
       style="fill:none;fill-opacity:1;stroke:#040a0a;stroke-opacity:0.96815287"
       id="rect4308"
       width="410.20407"
       height="55.102039"
       x="573.06122"
       y="953.17871" />
    <path
       sodipodi:type="star"
       style="fill:none;fill-opacity:1;stroke:#040a0a;stroke-opacity:0.96815287"
       id="path4310"
       sodipodi:sides="5"
       sodipodi:cx="614.69388"
       sodipodi:cy="978.89293"
       sodipodi:r1="12.784049"
       sodipodi:r2="6.3920245"
       sodipodi:arg1="0.29145679"
       sodipodi:arg2="0.91977533"
       inkscape:flatsided="false"
       inkscape:rounded="0"
       inkscape:randomized="0"
       d="m 626.93881,982.56641 -8.37134,1.41117 -3.58336,7.69612 -3.92898,-7.52554 -8.42676,-1.02974 5.94309,-6.06221 -1.62467,-8.33254 7.60202,3.7789 7.42266,-4.12005 -1.24479,8.39769 z"
       inkscape:transform-center-x="-0.089678142"
       inkscape:transform-center-y="1.1351645" />
    <path
       sodipodi:type="star"
       style="fill:none;fill-opacity:1;stroke:#040a0a;stroke-opacity:0.96815287"
       id="path4312"
       sodipodi:sides="5"
       sodipodi:cx="884.08167"
       sodipodi:cy="982.56641"
       sodipodi:r1="18.079374"
       sodipodi:r2="9.0396872"
       sodipodi:arg1="0.49394137"
       sodipodi:arg2="1.1222599"
       inkscape:flatsided="false"
       inkscape:rounded="0"
       inkscape:randomized="0"
       d="m 900.00003,991.13783 -11.99833,-0.42592 -7.1529,9.64249 -3.30261,-11.54272 -11.38091,-3.82312 9.9572,-6.70787 0.11912,-12.0053 9.4565,7.39702 11.45452,-3.59655 -4.11276,11.27947 z"
       inkscape:transform-center-x="0.99901083"
       inkscape:transform-center-y="0.74848557" />
    <text
       xml:space="preserve"
       style="font-style:normal;font-weight:normal;font-size:16.25px;line-height:125%;font-family:sans-serif;text-align:center;letter-spacing:0px;word-spacing:0px;text-anchor:middle;fill:#000000;fill-opacity:1;stroke:none;stroke-width:1px;stroke-linecap:butt;stroke-linejoin:miter;stroke-opacity:1"
       x="735.91833"
       y="985.01538"
       id="text4314"
       sodipodi:linespacing="125%"><tspan
         sodipodi:role="line"
         id="tspan4316"
         x="735.91833"
         y="985.01538">Social Media Icons</tspan></text>
    <text
       xml:space="preserve"
       style="font-style:normal;font-weight:normal;font-size:16.25px;line-height:125%;font-family:sans-serif;text-align:center;letter-spacing:0px;word-spacing:0px;text-anchor:middle;fill:#000000;fill-opacity:1;stroke:none;stroke-width:1px;stroke-linecap:butt;stroke-linejoin:miter;stroke-opacity:1"
       x="979.59186"
       y="912.77039"
       id="text4318"
       sodipodi:linespacing="125%"><tspan
         sodipodi:role="line"
         id="tspan4320"
         x="979.59186"
         y="912.77039">Join!</tspan></text>
    <ellipse
       style="fill:none;fill-opacity:1;stroke:#040a0a;stroke-opacity:0.96815287"
       id="path4322"
       cx="1139.3877"
       cy="969.09705"
       rx="60.612244"
       ry="53.877548" />
    <text
       xml:space="preserve"
       style="font-style:normal;font-weight:normal;font-size:16.25px;line-height:125%;font-family:sans-serif;text-align:center;letter-spacing:0px;word-spacing:0px;text-anchor:middle;fill:#000000;fill-opacity:1;stroke:none;stroke-width:1px;stroke-linecap:butt;stroke-linejoin:miter;stroke-opacity:1"
       x="1143.6735"
       y="893.17859"
       id="text4324"
       sodipodi:linespacing="125%"><tspan
         sodipodi:role="line"
         id="tspan4326"
         x="1143.6735"
         y="893.17859">Review Badge</tspan></text>
    <rect
       style="fill:none;fill-opacity:1;stroke:#040a0a;stroke-opacity:0.96815287"
       id="rect4328"
       width="50.204082"
       height="142.04082"
       x="2.4489796"
       y="867.46436" />
    <text
       xml:space="preserve"
       style="font-style:normal;font-weight:normal;font-size:16.25px;line-height:125%;font-family:sans-serif;text-align:center;letter-spacing:0px;word-spacing:0px;text-anchor:middle;fill:#000000;fill-opacity:1;stroke:none;stroke-width:1px;stroke-linecap:butt;stroke-linejoin:miter;stroke-opacity:1"
       x="34.285713"
       y="917.6684"
       id="text4330"
       sodipodi:linespacing="125%"><tspan
         sodipodi:role="line"
         id="tspan4332"
         x="34.285713"
         y="917.6684">Reviews</tspan><tspan
         sodipodi:role="line"
         x="34.285713"
         y="937.9809"
         id="tspan4334">Tab</tspan></text>
    <text
       xml:space="preserve"
       style="font-style:normal;font-weight:normal;font-size:16.25px;line-height:125%;font-family:sans-serif;text-align:start;letter-spacing:0px;word-spacing:0px;text-anchor:start;fill:#ff00ff;fill-opacity:1;stroke:none;stroke-width:1px;stroke-linecap:butt;stroke-linejoin:miter;stroke-opacity:1;"
       x="11.591897"
       y="-370.49484"
       id="text4336"
       sodipodi:linespacing="125%"><tspan
         sodipodi:role="line"
         id="tspan4338"
         x="11.591897"
         y="-370.49484">Promo Area</tspan></text>
    <path
       style="fill:#fbf8f3;fill-opacity:1;stroke:#040a0a;stroke-width:1.22448981;stroke-opacity:0.96815287"
       d="m 2.1201953,64.698656 0,-36.734694 637.9591847,0 637.95922,0 0,36.734694 0,36.734694 -637.95922,0 -637.9591847,0 z M 475.95555,86.149047 c 6.48819,-3.355176 13.98425,-7.208135 14.45663,-15.630531 0.73044,-13.0234 -10.29695,-27.441399 -21.85296,-27.432013 -7.83356,0.0064 -12.57412,6.568718 -15.25542,13.589607 -2.55856,6.699511 -1.27548,13.130764 3.51818,17.634162 9.43208,8.860985 24.63335,-1.183738 19.34766,-12.78458 -3.19293,-7.007704 -13.64128,-6.446955 -13.64128,0.732107 0,4.134395 3.57488,13.324912 5.93627,10.838953 1.14196,-1.202199 0.21566,-8.497281 -1.95668,-7.840962 -2.35094,0.710279 -2.7551,0.377532 -2.7551,-2.268272 0,-4.432826 3.47578,-3.823982 7.37197,-1.271098 6.14246,4.024689 5.52062,9.25714 -1.69041,12.723479 -9.46422,4.549449 -15.61705,-6.082656 -11.89099,-17.385287 3.18439,-9.659518 13.11289,-12.804887 20.85333,-6.291733 13.07341,11.000548 8.18322,31.478493 -8.59612,35.996699 -37.58759,1.191446 -25.0754,-49.178078 -0.80437,-50.197295 7.31555,-0.0336 12.66949,2.156029 17.78853,7.275062 2.70862,27.867253 21.01509,43.825776 8.34179,9.507503 -5.39815,-12.213155 -15.98028,-20.68281 -28.88885,-19.749089 -16.74467,3.304755 -25.13361,16.917643 -24.1631,30.666721 1.42308,19.15085 18.20602,29.992379 33.88094,21.886567 l 0.21659,-0.866502 z m 376.57281,-0.499424 c 8.91012,-4.112288 12.87286,-10.509895 12.837,-20.724559 -0.0368,-10.47084 -8.26673,-19.818245 -17.44907,-19.818245 -9.78996,0 -16.80391,7.271677 -16.81193,17.429661 -0.004,4.678693 0.6847,6.568448 3.56845,9.795918 3.06855,3.4343 4.38017,3.998911 9.28969,3.998911 4.74541,0 6.21877,-0.583712 8.67187,-3.43563 3.21158,-3.733672 3.75753,-8.058227 1.54741,-12.257114 -1.83482,-3.485867 -3.41702,-4.469721 -7.22485,-4.492587 -3.88268,-0.02331 -6.06123,2.052279 -6.06123,5.774782 0,3.344567 3.20165,5.016295 5.28639,2.760268 1.14586,-1.240003 0.99114,-1.406122 -0.7409,-0.795479 -2.961,1.043918 -4.21455,-2.491602 -1.75534,-4.950802 2.68316,-2.683163 8.00846,-1.10136 9.50006,2.82186 2.58946,6.810782 -1.88842,12.982865 -9.41913,12.982865 -9.63613,0 -14.61138,-11.562925 -8.96214,-20.828787 5.18941,-8.511653 16.41616,-9.417553 23.90479,-1.928911 12.09301,12.093016 2.89748,33.533208 -14.38214,33.533208 -6.79764,0 -11.13494,-1.890261 -15.90471,-6.931499 -4.42377,-4.675546 -5.89812,-9.025716 -5.87408,-17.331889 0.024,-8.312654 3.2191,-14.695234 10.15092,-20.277957 3.958,-3.18769 5.91285,-3.824492 12.96333,-4.22288 13.10636,-0.740575 21.70903,4.935786 26.50252,17.487354 2.81228,7.363841 1.98308,20.715636 -1.67115,26.9091 -1.41737,2.402274 -2.09377,4.367771 -1.50309,4.367771 0.59068,0 2.34464,-2.617347 3.89771,-5.816326 4.30361,-8.864513 3.97579,-20.794215 -0.81594,-29.693878 -8.6254,-16.019918 -28.18328,-20.52385 -41.49066,-9.554777 -15.78867,13.014351 -12.25606,39.143319 6.18063,45.715053 6.40131,2.281742 9.95679,2.165502 15.76559,-0.515431 z M 659.82309,81.091826 c 1.97747,-1.789599 2.2971,-3.926603 2.2971,-15.358462 0,-10.987768 -0.31698,-13.279606 -1.83673,-13.279606 -1.01021,0 -1.83674,0.661224 -1.83674,1.469387 0,1.142857 -0.32653,1.142857 -1.46938,0 -2.35242,-2.352418 -8.51476,-1.71945 -11.61496,1.193038 -4.19382,3.939893 -4.02471,13.40107 0.31716,17.742932 2.57732,2.577318 3.92937,3.024901 7.42432,2.457749 3.56783,-0.578981 4.20563,-0.350383 3.86417,1.384995 -0.31569,1.60439 -1.73017,2.078429 -6.20181,2.078429 -4.60495,0 -5.79245,0.421008 -5.79087,2.053073 0.004,3.914132 10.60437,4.098664 14.84774,0.258465 z m -43.00902,-7.821742 c 0,-2.176871 -0.81633,-2.448979 -7.34694,-2.448979 l -7.34694,0 0,-12.857143 c 0,-12.040816 -0.15548,-12.857143 -2.44898,-12.857143 -2.31836,0 -2.44898,0.816327 -2.44898,15.306122 l 0,15.306123 9.79592,0 c 8.97959,0 9.79592,-0.204082 9.79592,-2.44898 z m 18.046,0.577051 c 2.96844,-2.079168 4.68187,-8.69333 3.48619,-13.457291 -2.0508,-8.171051 -12.8051,-11.021376 -17.76985,-4.709728 -3.54358,4.504944 -3.47941,13.36866 0.12457,17.204926 3.15269,3.35588 10.0704,3.825928 14.15909,0.962093 z m 49.28338,0.656839 c 2.97424,-1.591768 5.24148,-8.641333 4.19684,-13.049376 -2.80597,-11.840447 -18.12433,-12.201359 -20.69711,-0.48764 -0.9853,4.486081 1.22497,11.827569 4.05866,13.480935 2.68126,1.564432 9.56525,1.595463 12.44161,0.05608 z"
       id="path4340"
       inkscape:connector-curvature="0"
       transform="translate(0,-387.6377)"
       sodipodi:nodetypes="ccccccccccssssssssssssscccccccccssscsssssssssssssssssssssssssssssssssssscssscssscssssssssssss" />
    <path
       style="fill:#fffcf6;fill-opacity:1;stroke:#040a0a;stroke-width:1.22562373;stroke-opacity:0.96815287"
       d="m 1.5085174,41.040775 0,-298.468585 639.1845026,0 639.18448,0 0,298.468585 0,298.468585 -639.18448,0 -639.1845026,0 0,-298.468585 z M 762.90421,-76.085062 c 2.0992,-2.658287 2.43285,-4.976932 2.43285,-16.906345 l 0,-13.825533 -5.21908,-0.15242 c -2.87049,-0.0838 -6.58544,-0.16895 -8.25543,-0.18913 -1.79385,-0.0217 -4.18077,1.28861 -5.83309,3.20204 -3.79135,4.390524 -3.96239,14.850298 -0.30673,18.758878 3.20213,3.42368 7.94748,4.586824 11.72275,2.873396 3.5984,-1.633141 4.08048,0.248924 0.94715,3.697717 -2.25801,2.485334 -6.70363,2.903155 -10.32858,0.970712 -2.05062,-1.093186 -2.3753,-0.852973 -2.3753,1.757343 0,2.517141 0.66852,3.087815 3.99106,3.406916 6.82876,0.655846 10.69927,-0.395912 13.2244,-3.593574 z m -232.09199,2.127642 c 3.31429,-1.766833 4.87035,-8.685259 4.87822,-21.689157 l 0.007,-11.306093 -5.21908,-0.0752 c -2.8705,-0.0415 -6.84171,-0.11915 -8.8249,-0.17284 -9.08564,-0.24579 -12.99374,15.076281 -5.69881,22.342769 3.74984,3.735229 7.21549,4.448066 11.22738,2.309345 3.01737,-1.608555 3.32994,1.363838 0.44556,4.236963 -2.21733,2.208709 -5.16272,2.43114 -9.6565,0.729271 -2.66165,-1.008004 -3.14999,-0.849976 -3.14999,1.019361 0,1.216769 0.3684,2.579288 0.81868,3.027797 1.27693,1.271972 12.58491,0.957355 15.17259,-0.422136 l -5.2e-4,-6e-5 z m -99.49664,-10.852021 c 0,-2.498281 0.71637,-3.713641 2.45604,-4.166795 1.35082,-0.351878 2.45604,-1.51698 2.45604,-2.589127 0,-1.133874 -1.02744,-1.949366 -2.45604,-1.949366 -2.27411,0 -2.45604,-0.815491 -2.45604,-11.009091 l 0,-11.00909 -3.37706,0.0192 c -2.88477,0.0164 -4.40636,1.58633 -10.43817,10.76993 -3.88361,5.912908 -7.06111,11.95927 -7.06111,13.436361 0,2.466953 0.59996,2.685629 7.36812,2.685629 7.36812,0 7.36812,0 7.36812,3.669696 0,3.098843 0.47756,3.669696 3.07005,3.669696 2.5649,0 3.07005,-0.580353 3.07005,-3.527033 z m 29.47249,-14.209837 c 0,-16.921372 -0.11286,-17.736862 -2.45604,-17.736862 -2.34313,0 -2.45604,0.81549 -2.45604,17.736862 0,16.921369 0.11285,17.73686 2.45604,17.73686 2.34311,0 2.45604,-0.815491 2.45604,-17.73686 z m 28.05403,7.143833 c -0.53659,-12.838935 -2.67546,-15.611265 -11.93684,-15.472095 -7.01126,0.10532 -8.74907,0.88978 -8.74907,3.9492 0,1.97777 0.51024,2.06868 4.96446,0.88441 3.44801,-0.91675 5.58259,-0.93155 6.98803,-0.0485 3.78938,2.38096 2.90111,3.823393 -2.74486,4.457301 -6.87618,0.772017 -10.43565,3.725559 -10.43565,8.659146 0,6.453873 2.75104,8.103337 13.16235,7.891815 l 9.17515,-0.186419 -0.42357,-10.134878 0,-3e-5 z m 12.47063,1.608376 c 0,-9.966881 2.34793,-13.986791 7.40058,-12.670631 2.09161,0.54484 2.49854,0.17535 2.18882,-1.98748 -0.26624,-1.85918 -1.11754,-2.5562 -2.83587,-2.32186 -1.35051,0.18417 -4.52774,0.35628 -7.06053,0.38247 l -4.60508,0.0476 0,12.767261 c 0,11.95177 0.15688,12.767271 2.45604,12.767271 2.23312,0 2.45604,-0.815501 2.45604,-8.98465 l 0,3.9e-5 z m 60.68656,8.242165 c 2.78524,-1.064625 2.58868,-5.729768 -0.20657,-4.902579 -7.0914,2.098552 -9.08259,2.13962 -11.98215,0.247166 -5.77955,-3.772141 -3.95283,-5.61118 5.57358,-5.61118 9.85814,0 10.87531,-0.955667 8.5351,-8.018933 -1.07539,-3.24575 -2.60407,-4.92029 -5.64837,-6.18733 -13.42145,-5.58597 -23.86618,11.806661 -13.36932,22.262609 2.33745,2.328335 4.25329,2.952733 9.05979,2.952733 3.35251,0 6.96958,-0.334106 8.03794,-0.742486 z m 39.02581,-2.994191 c 3.66811,-4.909602 1.40282,-9.166884 -6.02575,-11.324505 -4.35266,-1.26424 -5.88318,-2.311883 -5.88318,-4.02707 0,-2.01504 0.84338,-2.28344 6.44711,-2.05181 4.85328,0.20062 6.4471,-0.15953 6.4471,-1.45684 0,-2.55434 -2.01928,-3.3671 -8.61169,-3.46616 -7.20134,-0.10825 -9.8086,1.81218 -9.8086,7.22454 0,4.579235 2.75156,7.013063 9.51715,8.418168 2.76761,0.574799 3.99106,1.523783 3.99106,3.095736 0,2.57779 -3.72106,4.156356 -7.36812,3.125746 l -4.91207,-1.388102 c -1.8649,-0.526989 -2.45604,-0.109967 -2.45604,1.732918 0,3.163427 1.67753,3.765148 9.69912,3.478952 5.5308,-0.197327 7.01588,-0.754254 8.96391,-3.361573 z m 25.32437,0.370619 c 0.35747,-2.507272 0.10193,-2.644311 -2.84826,-1.52705 -6.76769,2.563044 -11.66667,-0.998653 -11.66667,-8.482028 0,-5.778076 4.05007,-9.093006 9.95949,-8.151746 4.13246,0.65823 4.77676,0.44954 4.77676,-1.54716 0,-5.00955 -14.04475,-3.92234 -17.7701,1.37559 -1.09434,1.55631 -1.87823,5.29574 -1.87823,8.959892 0,5.191052 0.57498,6.861524 3.29392,9.569869 2.84474,2.833636 4.14259,3.231717 9.51716,2.919088 5.38852,-0.313458 6.27591,-0.731458 6.61593,-3.116455 z m 11.47625,-5.928614 c 0.51766,-10.21124 2.69932,-13.48737 8.08638,-12.14312 2.19207,0.54698 2.76305,0.17116 2.76305,-1.81869 0,-3.44488 -2.86876,-4.23893 -7.32116,-2.02645 -2.05206,1.01971 -3.73102,1.34576 -3.73102,0.72455 0,-0.62121 -1.10521,-1.12948 -2.45604,-1.12948 -2.30011,0 -2.45604,0.81549 -2.45604,12.84393 0,11.780945 0.19216,12.843932 2.32182,12.843932 2.03203,0 2.38062,-1.160087 2.79301,-9.294672 z m 31.16758,6.29219 c 2.4575,-2.447903 3.01423,-4.224906 3.01423,-9.620887 0,-11.062393 -7.11522,-16.470203 -16.52018,-12.555893 -7.28508,3.03204 -8.99502,15.900544 -2.96272,22.296597 3.8703,4.10366 12.29017,4.042403 16.46867,-0.119877 l 0,6e-5 z m 14.06642,-14.734378 c 0,-16.921372 -0.11286,-17.736862 -2.45604,-17.736862 -2.34313,0 -2.45604,0.81549 -2.45604,17.736862 0,16.921369 0.11285,17.73686 2.45604,17.73686 2.34312,0 2.45604,-0.815491 2.45604,-17.73686 z m 12.2802,0 c 0,-16.921372 -0.11285,-17.736862 -2.45604,-17.736862 -2.34313,0 -2.45604,0.81549 -2.45604,17.736862 0,16.921369 0.11285,17.73686 2.45604,17.73686 2.34312,0 2.45604,-0.815491 2.45604,-17.73686 z m 13.50821,4.892928 0,-12.84393 -3.07004,0 -3.07005,0 0,12.84393 0,12.843932 3.07005,0 3.07004,0 0,-12.843932 z m 12.28021,3.757077 c 0,-9.523717 1.5764,-12.931317 5.98222,-12.931317 3.97925,0 5.06996,2.6842 5.06996,12.476964 0,8.725717 0.20992,9.541208 2.45604,9.541208 2.26087,0 2.45604,-0.815491 2.45604,-10.261957 0,-8.025168 -0.47751,-10.849355 -2.19076,-12.956875 -2.19745,-2.70317 -3.38365,-2.89414 -13.7735,-2.21736 l -5.52609,0.35994 -0.35787,10.912287 c -0.41212,12.566108 -0.0298,14.163965 3.38939,14.163965 2.28355,0 2.49457,-0.768689 2.49457,-9.086855 z m 82.27735,6.640391 c 4.93478,-4.915525 1.54669,-11.373474 -6.78366,-12.930154 -9.02816,-1.687095 -6.32708,-7.250334 2.90025,-5.973394 4.65876,0.6447 5.27391,0.46398 4.90558,-1.44114 -0.62394,-3.22725 -8.62322,-4.56692 -13.9734,-2.3402 -3.66685,1.52614 -4.24105,2.33295 -4.24105,5.95907 0,4.913055 1.24274,6.147007 8.28914,8.230494 3.66448,1.083526 5.21908,2.20729 5.21908,3.77272 0,2.880099 -4.57868,4.030166 -9.15105,2.298527 -4.3011,-1.628905 -6.82031,0.07942 -4.40036,2.983861 2.4458,2.935512 14.10671,2.556781 17.23547,-0.559784 z m 12.28021,-15.290396 c 0,-16.921372 -0.11286,-17.736862 -2.45604,-17.736862 -2.34313,0 -2.45604,0.81549 -2.45604,17.736862 0,16.921369 0.11285,17.73686 2.45604,17.73686 2.34311,0 2.45604,-0.815491 2.45604,-17.73686 z m 13.24416,4.587122 0.34998,-12.538124 -3.11302,0 -3.11301,0 0,12.929003 c 0,12.708201 0.0471,12.922341 2.76305,12.538136 2.63323,-0.372527 2.77948,-0.979932 3.113,-12.929015 z m 22.12281,11.681868 c 1.14616,-1.141686 1.47363,-1.141686 1.47363,0 0,0.80733 1.10522,1.46787 2.45604,1.46787 2.34313,0 2.45604,-0.815491 2.45604,-17.73686 0,-16.921372 -0.11285,-17.736862 -2.45604,-17.736862 -2.12347,0 -2.45604,0.81549 -2.45604,6.02241 l 0,6.0224 -3.60392,-1.79086 c -3.14852,-1.56456 -4.14018,-1.56767 -7.84767,-0.0246 -7.44021,3.09659 -9.22451,15.888293 -3.11923,22.361737 3.00436,3.185504 10.50602,3.995861 13.09719,1.414785 l 0,-3e-5 z m 32.6877,0.725384 c 1.06837,-0.40836 1.94247,-1.821597 1.94247,-3.140511 0,-1.961233 -0.50327,-2.219817 -2.76304,-1.41965 -6.72102,2.379873 -14.42924,-0.139996 -14.42924,-4.716999 0,-0.544191 4.21733,-0.989433 9.37185,-0.989433 l 9.37184,0 -0.6653,-4.940909 c -0.81842,-6.077934 -2.33765,-7.994694 -7.74575,-9.772574 -9.57297,-3.14704 -18.20264,6.44275 -15.28135,16.981531 1.66604,6.010349 5.50358,8.680534 12.5234,8.713829 3.15296,0.01488 6.60677,-0.306904 7.67512,-0.715284 z m 23.77359,-1.161716 c 3.32792,-2.321872 3.63342,-7.921873 0.58025,-10.636352 -1.18197,-1.050849 -4.49762,-2.533515 -7.36812,-3.294812 -8.89528,-2.359154 -5.24382,-7.377606 4.09783,-5.631946 3.5859,0.6701 4.19131,0.44442 4.19131,-1.56233 0,-1.79701 -1.16796,-2.53158 -4.99421,-3.14104 -13.52648,-2.15453 -18.99857,11.08084 -6.11724,14.795789 7.24584,2.089692 8.72776,3.689217 5.58536,6.028651 -2.32831,1.733368 -5.8943,1.665837 -10.74518,-0.203511 -1.61263,-0.621431 -2.14904,-0.210273 -2.14904,1.647256 0,1.36147 0.69077,2.753039 1.53503,3.09238 3.42792,1.377804 12.79601,0.711559 15.38401,-1.094085 z m -198.66603,-30.51144 c 0,-2.44646 -0.614,-3.05808 -3.07004,-3.05808 -2.45604,0 -3.07005,0.61162 -3.07005,3.05808 0,2.44646 0.61401,3.05808 3.07005,3.05808 2.45604,0 3.07004,-0.61162 3.07004,-3.05808 z m 120.34598,0 c 0,-2.44646 -0.614,-3.05808 -3.07004,-3.05808 -2.45605,0 -3.07006,0.61162 -3.07006,3.05808 0,2.44646 0.61401,3.05808 3.07006,3.05808 2.45604,0 3.07004,-0.61162 3.07004,-3.05808 z"
       id="path4360"
       inkscape:connector-curvature="0" />
    <rect
       style="fill:none;fill-opacity:1;stroke:#040a0a;stroke-opacity:0.96815287"
       id="rect4368"
       width="1281.4507"
       height="46.75563"
       x="0"
       y="344.10107" />
    <text
       xml:space="preserve"
       style="font-style:normal;font-weight:normal;font-size:10px;line-height:125%;font-family:sans-serif;text-align:center;letter-spacing:0px;word-spacing:0px;text-anchor:middle;fill:#000000;fill-opacity:1;stroke:none;stroke-width:1px;stroke-linecap:butt;stroke-linejoin:miter;stroke-opacity:1"
       x="366.73471"
       y="-269.47443"
       id="text4407"
       sodipodi:linespacing="125%"><tspan
         sodipodi:role="line"
         id="tspan4409"
         x="366.73471"
         y="-269.47443">Dresses</tspan></text>
    <text
       xml:space="preserve"
       style="font-style:normal;font-weight:normal;font-size:10px;line-height:125%;font-family:sans-serif;text-align:center;letter-spacing:0px;word-spacing:0px;text-anchor:middle;fill:#000000;fill-opacity:1;stroke:none;stroke-width:1px;stroke-linecap:butt;stroke-linejoin:miter;stroke-opacity:1"
       x="738.36731"
       y="-269.47443"
       id="text4411"
       sodipodi:linespacing="125%"><tspan
         sodipodi:role="line"
         id="tspan4413"
         x="738.36731"
         y="-269.47443">Intimates</tspan></text>
  </g>
</svg>
